<svg width="16" height="16" viewBox="0 0 16 16" fill="none" xmlns="http://www.w3.org/2000/svg">
<path d="M16 16.0001V10.1401C16 7.26006 15.38 5.06006 12.02 5.06006C10.4 5.06006 9.31999 5.94006 8.87999 6.78006H8.83999V5.32006H5.65999V16.0001H8.97999V10.7001C8.97999 9.30006 9.23999 7.96006 10.96 7.96006C12.66 7.96006 12.68 9.54006 12.68 10.7801V15.9801H16V16.0001Z" fill="white"/>
<path d="M0.259987 5.31982H3.57999V15.9998H0.259987V5.31982Z" fill="white"/>
<path d="M1.91999 0C0.859992 0 -7.62939e-06 0.86 -7.62939e-06 1.92C-7.62939e-06 2.98 0.859992 3.86 1.91999 3.86C2.97999 3.86 3.83999 2.98 3.83999 1.92C3.83999 0.86 2.97999 0 1.91999 0Z" fill="white"/>
</svg>
