<svg width="602" height="602" viewBox="0 0 602 602" fill="none" xmlns="http://www.w3.org/2000/svg">
<path d="M474.203 209.536L474.161 209.438C471.155 204.933 467.864 200.625 464.309 196.541C463.183 195.26 462.133 194.111 461.098 193.025L460.974 192.895L460.809 192.949C438.786 172.156 411.646 169.762 386.344 186.381L386.275 186.427L386.241 186.501C385.74 187.603 385.39 188.767 385.202 189.963L385.176 190.202C385.142 190.523 385.105 190.84 385.059 191.173C385.022 191.629 385.009 192.088 385.019 192.545C385.027 192.689 385.005 192.833 384.954 192.967C384.903 193.102 384.824 193.224 384.722 193.326L384.66 193.386L384.642 193.468C383.388 199.198 380.629 203.885 376.689 207.024C373.633 209.502 369.819 210.859 365.884 210.868C363.968 210.86 362.066 210.561 360.241 209.979C359.009 209.586 357.848 208.998 356.801 208.24C355.473 207.628 353.683 206.987 351.584 207.489C350.123 207.842 348.825 208.559 347.854 209.143C343.271 212.023 338.952 215.303 334.947 218.943L334.905 218.991C332.345 222.682 330.249 226.673 328.664 230.875C322.814 246.184 323.631 256.277 324.582 267.988C324.773 270.336 324.97 272.762 325.11 275.278C325.133 275.934 325.323 276.573 325.662 277.135L325.814 277.377L326.057 277.223C326.39 277.007 326.677 276.728 326.904 276.402C327.492 275.599 327.815 274.55 327.887 273.191L327.526 269.955C327.526 269.913 327.526 269.868 327.512 269.816L327.428 269.034C327.419 268.943 327.425 268.851 327.448 268.763C327.448 268.562 327.448 268.361 327.476 268.098C327.584 266.662 328.096 265.191 328.995 263.724C329.293 263.246 329.622 262.788 329.98 262.353L330.247 261.936C331.317 260.274 332.531 258.392 332.17 255.884C332.079 255.254 332.017 254.75 331.969 254.291C331.906 253.817 331.883 253.339 331.901 252.862C331.911 252.757 331.917 252.661 331.925 252.547V252.503C331.934 252.267 331.959 252.032 332.001 251.8L332.23 250.771L332.609 249.768C332.685 249.566 332.778 249.372 332.886 249.186C332.948 249.073 333.008 248.959 333.056 248.861C333.713 247.68 334.57 246.623 335.589 245.736C335.911 245.433 336.255 245.154 336.618 244.901C336.791 244.775 336.961 244.651 337.104 244.536L337.505 244.283C337.915 244.015 338.337 243.767 338.771 243.541C339.658 243.075 340.509 242.726 341.33 242.387L341.378 242.367C341.637 242.261 341.898 242.154 342.151 242.046C344.276 241.225 346.517 240.487 349.005 239.786C352.448 238.841 355.942 238.094 359.47 237.551C360.357 237.362 361.276 237.12 361.774 236.403C362.085 235.968 362.175 235.44 362.051 234.772L362.029 234.716C361.737 234.15 361.478 233.568 361.254 232.972C360.821 231.817 360.565 230.603 360.496 229.372C360.42 228.098 360.593 226.821 361.005 225.613C361.434 224.406 362.092 223.293 362.942 222.334C363.786 221.398 364.786 220.615 365.898 220.019C366.988 219.425 368.168 219.015 369.391 218.805C370.613 218.584 371.863 218.562 373.092 218.738C374.29 218.895 375.464 219.208 376.581 219.67C377.674 220.111 378.722 220.66 379.707 221.307C381.758 222.619 383.52 224.211 384.969 225.595C386.418 226.98 387.778 228.405 389.111 229.809C390.804 231.575 392.402 233.243 394.127 234.826C397.739 238.173 401.151 240.31 404.542 241.364C404.719 241.41 404.893 241.46 405.07 241.512C405.365 241.598 405.672 241.687 406.001 241.755L407.544 242.092C407.895 242.168 408.246 242.231 408.595 242.293L409.109 242.385C409.645 242.485 410.175 242.572 410.678 242.638C412.968 243.001 415.276 243.172 417.03 243.28C418.021 243.336 419.036 243.37 420.122 243.388C422.969 243.34 426.884 242.885 428.002 239.479C429.035 236.333 425.307 232.928 422.839 230.674L422.363 230.241C421.472 229.48 420.557 228.75 419.927 228.252C419.701 228.063 419.557 227.793 419.525 227.5C419.493 227.206 419.576 226.912 419.756 226.679C419.937 226.445 420.2 226.291 420.492 226.247C420.784 226.204 421.081 226.275 421.322 226.446C422.632 227.421 424.167 228.593 425.624 229.894C426.882 230.977 428.152 232.183 429.619 233.69C430.249 234.344 430.863 235.005 431.459 235.673L431.512 235.713C431.654 235.804 431.816 235.862 431.984 235.883C432.152 235.903 432.322 235.886 432.483 235.831C433.055 235.631 433.564 234.958 434.008 233.809C434.714 231.174 435.868 228.681 437.419 226.438C440.53 221.893 445.045 218.026 450.483 215.257C455.921 212.488 461.72 211.181 467.252 211.42C467.969 211.454 468.697 211.518 469.432 211.609L471.007 211.625C471.208 211.625 471.444 211.651 471.685 211.673C472.418 211.741 473.248 211.819 473.806 211.543C474.316 211.276 474.436 210.625 474.203 209.536Z" fill="#FF4569"/>
<path d="M459.037 289.821C456.986 289.275 454.755 289.498 452.598 289.712C452.088 289.763 451.584 289.813 451.091 289.851C448.863 290.027 446.638 290.201 444.414 290.371C441.418 290.71 438.354 291.001 435.041 291.262C426.236 291.974 418.428 292.064 411.162 291.524C407.17 291.24 403.197 290.741 399.258 290.029C395.715 289.389 391.902 288.492 387.602 287.29C386.779 287.066 385.96 286.831 385.144 286.598C382.109 285.733 379.244 284.914 376.368 284.549C373.96 284.379 370.537 284.417 368.729 286.735L368.701 286.771V286.815C368.675 287.404 368.804 287.991 369.076 288.514C377.374 304.969 385.842 317.659 394.988 327.307C398.833 330.012 404.199 333.189 410.217 333.189C412.217 333.19 414.201 332.831 416.074 332.129C419.66 330.789 422.873 328.503 425.977 326.292C426.625 325.83 427.271 325.371 427.916 324.921C431.502 322.42 435.093 319.918 438.689 317.416L444.784 312.516C450.236 307.62 455.644 302.641 460.873 297.691C461.074 297.392 461.274 297.089 461.525 296.754L461.726 296.471C462.502 295.415 463.235 294.42 462.785 292.895C462.199 290.85 459.968 290.064 459.037 289.821Z" fill="#FF4569"/>
<path d="M217.256 318.402L198.144 274.57L197.637 273.549L197.133 272.545L197.115 272.475C197.079 272.333 197.043 272.186 196.994 272.044L196.914 271.801L196.832 271.552L176.284 224.421C176.187 224.202 176.072 223.99 175.941 223.789L175.93 223.773H175.912C175.794 223.715 175.676 223.661 175.559 223.611C175.477 223.41 175.38 223.215 175.268 223.029L175.254 223.013C174.494 222.343 173.512 221.979 172.498 221.993C171.485 222.007 170.513 222.398 169.772 223.089L144.905 246.318C141.793 249.242 139.721 253.103 139.006 257.313L136.728 270.928C135.897 275.847 133.477 280.357 129.839 283.771L90.9101 320.198L90.8739 320.232L90.894 320.278C98.2705 337.371 105.646 354.464 113.019 371.558L127.293 404.644C127.695 405.619 128.432 406.417 129.372 406.896L129.416 406.918L215.636 326.228C216.679 325.248 217.393 323.971 217.683 322.571C217.973 321.17 217.824 319.714 217.256 318.402ZM174.869 327.464C175.268 327.809 175.59 328.234 175.814 328.711C176.039 329.188 176.16 329.708 176.171 330.235C176.181 330.762 176.081 331.286 175.876 331.772C175.671 332.258 175.366 332.696 174.981 333.056L159.052 348.02C158.356 348.68 157.433 349.047 156.474 349.045C156.051 349.048 155.63 348.98 155.23 348.845C154.579 348.619 154.003 348.219 153.564 347.689C153.125 347.158 152.84 346.516 152.741 345.835L151.068 334.573C151.038 334.365 150.934 334.174 150.774 334.035C150.615 333.897 150.412 333.82 150.201 333.819H150.153C148.396 333.941 146.634 333.667 144.998 333.016C141.598 331.662 139.028 328.802 137.76 324.976C136.491 321.149 136.682 316.798 138.297 312.747C139.356 310.079 141.009 307.688 143.132 305.756C143.219 305.665 143.314 305.582 143.416 305.509C147.562 301.955 152.681 300.893 157.108 302.647C163.405 305.16 166.559 312.632 164.611 320.416L164.428 321.143C164.397 321.268 164.408 321.401 164.46 321.52C164.512 321.638 164.602 321.736 164.715 321.799L174.213 327.016C174.397 327.119 174.573 327.238 174.737 327.371L174.869 327.464Z" fill="#8066FF"/>
<path d="M104.146 383.008V382.96L82.3877 333.05C81.7258 331.527 81.4506 329.863 81.5864 328.207C81.7222 326.551 82.2649 324.955 83.1663 323.559L83.1884 323.501C83.2237 323.338 83.2989 323.187 83.4071 323.061C84.7475 321.456 86.1341 319.782 87.1937 317.898C89.8685 310.825 88.0264 304.622 82.2693 301.309C80.5889 300.343 78.7179 299.756 76.787 299.588C74.8562 299.421 72.9119 299.676 71.0902 300.338C69.2982 301.369 67.6909 302.692 66.4869 303.731L64.0949 305.964C64.0776 305.987 64.0616 306.01 64.0468 306.035L64.0167 306.079C63.8911 306.291 63.7013 306.457 63.4749 306.554L45.5714 323.22C44.7376 323.992 44.1714 325.009 43.955 326.124C43.7385 327.239 43.8829 328.395 44.3674 329.422V329.465L44.4256 329.527C44.5825 329.695 44.75 329.852 44.9273 329.998C44.9513 330.131 44.9814 330.267 45.0236 330.438L45.0557 330.506C45.1271 330.606 45.2063 330.7 45.2925 330.787L97.1387 386.45L97.1869 386.502L97.2571 386.514C97.3273 386.526 97.3975 386.536 97.4778 386.546C97.843 386.972 98.2143 387.397 98.5975 387.83L98.6377 387.863C99.9861 388.697 101.425 389.502 102.818 389.719C103.04 389.755 103.265 389.775 103.49 389.777C104.22 389.777 104.758 389.544 105.095 389.083C106.271 387.457 104.327 383.643 104.244 383.482C104.171 383.335 104.137 383.172 104.146 383.008Z" fill="#8066FF"/>
<path d="M142.359 233.724L142.347 233.71C137.892 228.78 133.152 225.824 128.258 224.921C123.47 224.038 118.871 225.224 114.579 228.449L64.6147 272.088L64.3678 272.303L64.6929 272.337C64.9663 272.363 65.2417 272.357 65.5136 272.319C72.9383 271.389 82.2111 277.612 87.1555 283.939C92.2986 290.511 96.338 298.187 99.938 305.485C100.117 305.864 100.381 306.198 100.709 306.46L100.805 306.536L104.589 302.988L127.638 281.419C130.759 278.489 132.834 274.617 133.548 270.396L135.851 256.783C136.436 253.332 137.809 250.064 139.865 247.231L139.887 247.187C139.944 246.992 140.045 246.812 140.182 246.661L140.284 246.547C142.164 244.45 144.297 242.072 144.329 239.092C144.333 237.389 143.711 235.685 142.359 233.724Z" fill="#1DFFC4"/>
<path d="M298.462 213.01C297.701 212.417 296.906 211.872 296.08 211.376C300.628 205.256 302.605 197.602 301.588 190.045C300.571 182.488 296.642 175.628 290.638 170.928C277.947 160.979 259.522 163.218 249.573 175.908C246.214 180.189 244.123 185.326 243.537 190.736C238.939 187.035 234.313 183.365 229.659 179.725C225.929 176.801 222.183 173.896 218.422 171.01C214.681 168.108 210.895 165.253 207.13 162.381C199.585 156.648 191.985 150.982 184.33 145.385C176.665 139.794 168.961 134.266 161.103 128.93C160.083 128.244 158.841 127.97 157.627 128.162C156.413 128.355 155.317 128.999 154.559 129.967C153.8 130.934 153.436 132.153 153.54 133.378C153.643 134.602 154.206 135.743 155.115 136.57C157.122 138.38 159.147 140.177 161.192 141.962L140.768 168.016C140.211 168.725 139.8 169.537 139.557 170.405C139.315 171.273 139.246 172.18 139.354 173.075C139.463 173.969 139.747 174.834 140.19 175.619C140.634 176.403 141.227 177.093 141.938 177.648L165.269 195.927C166.476 196.869 167.964 197.382 169.495 197.384C169.772 197.383 170.049 197.367 170.324 197.338C172.128 197.116 173.77 196.19 174.893 194.761L194.414 169.848C195.807 170.984 197.201 172.132 198.6 173.259C202.29 176.229 205.968 179.221 209.681 182.163C213.393 185.105 217.105 188.069 220.83 190.992C225.468 194.631 230.128 198.243 234.81 201.828C229.721 203.694 225.255 206.944 221.913 211.212C211.97 223.908 214.204 242.327 226.9 252.276C232.907 256.98 240.516 259.15 248.101 258.323C255.686 257.496 262.648 253.738 267.501 247.849C268.181 248.533 268.902 249.176 269.66 249.774C273.749 252.997 278.805 254.749 284.012 254.748C284.966 254.749 285.92 254.69 286.867 254.572C289.914 254.213 292.859 253.252 295.531 251.746C298.204 250.24 300.551 248.219 302.437 245.799C310.375 235.655 308.593 220.948 298.462 213.01ZM257.174 238.835C255.279 241.253 252.709 243.054 249.79 244.011C246.871 244.968 243.734 245.038 240.775 244.212C237.816 243.387 235.168 241.702 233.166 239.372C231.164 237.042 229.898 234.171 229.528 231.121C229.157 228.072 229.699 224.981 231.085 222.239C232.471 219.498 234.638 217.229 237.314 215.719C239.989 214.209 243.051 213.526 246.115 213.756C249.178 213.987 252.104 215.12 254.524 217.013C257.766 219.558 259.865 223.285 260.362 227.377C260.859 231.469 259.713 235.59 257.174 238.837V238.835ZM260.361 184.366C261.616 182.754 263.178 181.408 264.958 180.404C266.737 179.401 268.699 178.762 270.727 178.523C271.358 178.443 271.994 178.403 272.63 178.403C276.144 178.409 279.553 179.606 282.3 181.799C285.046 183.992 286.969 187.05 287.754 190.476C288.539 193.902 288.14 197.493 286.622 200.663C285.104 203.832 282.557 206.394 279.395 207.93C276.234 209.467 272.646 209.886 269.216 209.121C265.785 208.355 262.716 206.45 260.507 203.716C258.299 200.982 257.082 197.58 257.056 194.066C257.029 190.551 258.194 187.132 260.361 184.364V184.366ZM276.466 225.443C277.244 224.444 278.212 223.609 279.314 222.987C280.416 222.364 281.631 221.967 282.888 221.817C283.28 221.769 283.675 221.745 284.07 221.743C286.25 221.747 288.365 222.489 290.07 223.85C291.774 225.21 292.967 227.108 293.454 229.234C293.942 231.359 293.694 233.587 292.752 235.554C291.811 237.521 290.23 239.111 288.269 240.064C286.307 241.018 284.081 241.278 281.952 240.803C279.824 240.329 277.919 239.147 276.549 237.45C275.178 235.754 274.423 233.643 274.406 231.463C274.39 229.282 275.112 227.16 276.456 225.443H276.466Z" fill="#FFEC61"/>
<path d="M338.665 174.6L333.548 174.506C332.842 174.422 332.009 174.305 331.509 173.775C331.278 173.513 331.104 173.204 330.998 172.87L329.091 161.687C329.021 161.325 328.814 161.005 328.513 160.792C328.213 160.579 327.841 160.491 327.477 160.546C327.112 160.6 326.783 160.794 326.558 161.085C326.333 161.377 326.229 161.744 326.268 162.111L328.124 176.402V176.428C328.179 176.838 328.385 177.213 328.702 177.478C329.02 177.743 329.425 177.88 329.838 177.861L338.701 177.46C339.071 177.442 339.419 177.281 339.673 177.011C339.927 176.741 340.066 176.384 340.061 176.014C340.056 175.643 339.907 175.289 339.647 175.027C339.386 174.764 339.033 174.612 338.663 174.604L338.665 174.6Z" fill="black"/>
<path d="M559.29 152.059C553.368 145.325 541.029 145.142 522.634 151.517C505.592 157.423 483.803 168.891 459.625 184.694C459.385 184.851 459.188 185.066 459.053 185.32C458.918 185.574 458.85 185.857 458.854 186.144C455.808 183.251 452.592 180.543 449.222 178.033C445.99 175.615 442.576 173.449 439.01 171.556C435.425 169.682 431.642 168.084 427.629 167.095C425.605 166.589 423.537 166.275 421.454 166.158C419.343 166.086 417.231 166.263 415.161 166.684C411.09 167.486 407.263 168.891 403.579 170.522C399.919 172.166 396.355 174.015 392.905 176.063C389.895 177.839 386.994 179.701 384.132 181.718C382.202 179.456 380.556 176.978 379.421 174.305C378.76 172.764 378.293 171.146 378.032 169.489C377.904 168.679 377.841 167.859 377.843 167.039C377.843 166.638 377.871 166.236 377.905 165.835C377.928 165.634 377.952 165.452 377.98 165.263L377.998 165.195C382.011 161.436 385.457 156.987 387.845 151.951C390.313 146.772 391.657 140.95 391.256 135.095C391.065 132.155 390.386 129.268 389.249 126.55C388.105 123.813 386.452 121.317 384.377 119.196C382.302 117.076 379.852 115.356 377.153 114.125C374.794 113.053 372.304 112.298 369.746 111.88C369.08 110.326 368.24 108.853 367.244 107.487C366.045 105.867 364.651 104.402 363.092 103.125C360.002 100.578 356.422 98.756 352.686 97.544C348.928 96.3076 344.983 95.7359 341.029 95.8544C340.527 95.8664 340.026 95.9166 339.526 95.9567C339.026 95.9969 338.567 96.0531 338.087 96.1173C337.122 96.2437 336.163 96.3922 335.21 96.5748C333.287 96.9325 331.394 97.4309 329.545 98.0657C325.832 99.3219 322.337 101.224 319.184 103.418C316.032 105.611 313.152 108.015 310.108 109.865C308.617 110.787 307.031 111.547 305.379 112.132C303.735 112.703 302.028 113.073 300.296 113.234C296.812 113.577 293.208 113.172 289.66 112.431L289.626 112.419C289.472 112.389 289.315 112.382 289.159 112.397C288.936 112.414 288.72 112.475 288.521 112.575C288.322 112.676 288.145 112.815 288 112.984C287.856 113.154 287.746 113.35 287.677 113.562C287.608 113.774 287.582 113.997 287.599 114.219C287.68 115.223 287.8 116.082 287.943 117.001C288.085 117.92 288.262 118.807 288.456 119.692C288.845 121.482 289.343 123.246 289.947 124.975C290.944 127.926 292.324 130.733 294.053 133.325C294.564 133.992 295.116 134.627 295.704 135.227C296.558 136.109 297.464 136.939 298.417 137.711C299.377 138.494 300.382 139.237 301.427 139.919C302.467 140.61 303.542 141.247 304.648 141.827L304.666 141.839C304.734 141.873 304.794 141.92 304.843 141.977C304.892 142.034 304.928 142.101 304.951 142.173C304.974 142.245 304.982 142.32 304.975 142.395C304.968 142.47 304.947 142.543 304.911 142.61C304.848 142.731 304.743 142.825 304.617 142.875C304.49 142.926 304.35 142.929 304.221 142.885C302.984 142.462 301.772 141.972 300.589 141.418C300.225 141.247 299.712 140.982 299.17 140.691C298.884 140.537 298.562 140.462 298.237 140.475C297.912 140.487 297.597 140.586 297.323 140.761C297.049 140.936 296.828 141.181 296.681 141.471C296.534 141.761 296.467 142.085 296.487 142.409C297.061 150.012 300.713 156.981 306.38 161.396C306.712 161.752 307.109 162.041 307.55 162.247C309.006 163.245 310.571 164.073 312.215 164.715C312.312 165.08 312.398 165.452 312.494 165.817C313.533 169.632 314.79 173.384 316.259 177.054C316.602 177.967 317.047 178.888 317.441 179.807C317.834 180.726 318.326 181.613 318.783 182.514C319.786 184.268 320.81 186.022 322.072 187.631L322.53 188.233L323.027 188.821C323.358 189.211 323.683 189.61 324.03 189.987C324.751 190.73 325.447 191.478 326.238 192.152C327.784 193.547 329.499 194.742 331.343 195.71C335.072 197.665 339.257 198.586 343.463 198.377C345.469 198.262 347.456 197.919 349.385 197.356C349.4 197.402 349.417 197.448 349.437 197.492L352.246 202.91C347.454 205.434 328.533 216.178 320.485 232.324C313.546 246.236 316.287 262.301 318.703 276.47C319.279 279.858 319.829 283.078 320.216 286.102C320.213 286.11 320.213 286.117 320.216 286.125C320.924 291.641 321.095 296.451 319.913 300.209C317.029 299.656 314.144 299.13 311.26 298.594C307.971 297.978 304.68 297.372 301.379 296.806C298.911 296.11 296.702 294.498 294.852 292.444C293.001 290.389 291.44 287.937 290.007 285.39C288.575 282.844 287.335 280.159 285.769 277.434C284.96 276.035 284.008 274.724 282.93 273.521C281.797 272.242 280.443 271.178 278.933 270.38C277.367 269.578 275.449 269.13 273.547 269.449C271.661 269.764 269.948 270.735 268.709 272.19C267.546 273.563 266.756 275.211 266.413 276.976C266.078 278.663 266.07 280.398 266.391 282.087C266.459 282.488 266.558 282.91 266.66 283.315C266.762 283.721 266.861 284.064 266.975 284.441C267.192 285.183 267.432 285.926 267.689 286.662C267.856 287.12 268.032 287.571 268.209 288.021C266.145 286.805 264.216 285.375 262.452 283.755C259.368 280.877 255.38 279.557 251.795 280.219C249.882 280.549 248.135 281.51 246.832 282.948C242.841 279.978 237.768 279.898 234.391 282.976C230.363 286.642 229.639 294.25 236.773 303.205C236.478 303.668 236.231 304.159 236.036 304.672C235.659 305.682 235.449 306.747 235.414 307.825C235.386 309.938 235.962 311.93 236.797 313.684C237.635 315.394 238.693 316.987 239.943 318.424C241.16 319.853 242.527 321.147 244.021 322.285C245.46 323.397 246.96 324.426 248.516 325.369C251.571 327.219 254.725 328.903 257.963 330.412C261.162 331.931 264.384 333.341 267.633 334.7C274.167 337.59 280.476 340.25 286.532 342.632C269.551 364.884 244.645 402.537 257.636 417.312C260.662 420.756 265.41 422.488 271.811 422.488C275.1 422.488 278.834 422.024 282.994 421.111C294.336 418.609 308.547 412.807 325.241 403.854C359.4 385.549 400.258 356.073 440.295 320.862C480.332 285.651 514.786 248.895 537.301 217.356C544.104 207.83 549.577 199.12 553.722 191.227C554.145 190.625 554.566 189.999 554.99 189.383C555.404 188.802 555.637 188.11 555.658 187.397C557.214 184.226 558.599 180.976 559.81 177.658C564.054 165.897 563.873 157.274 559.29 152.059ZM343.29 194.958C339.7 195.132 336.129 194.341 332.948 192.668C331.353 191.825 329.869 190.785 328.533 189.572C327.837 188.984 327.219 188.31 326.585 187.659C326.276 187.322 325.983 186.963 325.694 186.614L325.249 186.088L324.847 185.534C323.715 184.09 322.774 182.478 321.859 180.863C321.442 180.028 321.008 179.207 320.619 178.356C320.23 177.506 319.849 176.655 319.511 175.758C318.102 172.218 316.896 168.6 315.899 164.922C315.498 163.415 315.129 161.896 314.786 160.371C314.806 160.157 314.775 159.941 314.693 159.743C314.637 159.594 314.585 159.44 314.539 159.291C314.471 158.948 314.402 158.601 314.338 158.252C314.262 157.619 314.319 156.978 314.506 156.369C314.693 155.76 315.006 155.197 315.424 154.716C315.78 154.449 316.154 154.207 316.544 153.992C317.018 153.737 317.51 153.518 318.017 153.335C318.518 153.147 319.038 153.004 319.604 152.834L319.861 152.759C320.272 152.637 320.63 152.38 320.879 152.03C321.128 151.68 321.252 151.257 321.232 150.828C321.213 150.399 321.05 149.989 320.771 149.663C320.491 149.337 320.111 149.114 319.69 149.029C318.219 148.764 316.702 148.938 315.328 149.527C314.968 149.64 314.599 149.724 314.226 149.778C313.638 149.852 313.273 149.487 313.01 149.023C312.651 147.693 312.586 145.883 313.7 144.917C314.124 144.546 314.703 144.426 315.34 144.376C318.788 144.599 322.251 144.489 325.678 144.045C329.316 143.577 332.846 142.578 336.209 141.6C337.883 141.133 339.538 140.663 341.069 140.499C341.772 140.407 342.484 140.422 343.182 140.545C343.797 140.662 344.376 140.923 344.872 141.305C345.899 142.07 346.734 143.43 347.39 144.897C348.051 146.432 348.595 148.014 349.018 149.631C349.106 149.956 349.289 150.248 349.543 150.47C349.797 150.692 350.11 150.834 350.444 150.878C350.778 150.923 351.118 150.868 351.421 150.72C351.724 150.573 351.977 150.339 352.148 150.048L352.166 150.026C353.103 148.439 354.373 147.091 355.965 146.274C357.573 145.428 359.382 145.039 361.196 145.148C364.862 145.337 368.472 147.496 370.025 150.723C370.407 151.537 370.672 152.4 370.814 153.287C370.969 154.204 371.012 155.135 370.944 156.062C370.816 157.919 370.221 159.714 369.215 161.28C368.227 162.837 366.825 164.088 365.165 164.892C363.488 165.685 361.618 165.979 359.779 165.737C359.404 165.681 359.023 165.777 358.718 166.003C358.414 166.229 358.212 166.567 358.157 166.942C358.102 167.317 358.197 167.698 358.423 168.002C358.649 168.307 358.987 168.509 359.362 168.564C361.759 168.962 364.22 168.661 366.449 167.695C367.133 167.389 367.786 167.02 368.402 166.593C368.502 166.55 368.595 166.494 368.681 166.427C369.772 165.604 371.793 163.88 373.266 164.846C373.968 165.309 374.069 166.491 374.231 167.234C374.312 167.571 374.386 167.902 374.46 168.237C374.494 168.839 374.556 169.419 374.649 170.007C374.949 171.947 375.494 173.841 376.27 175.643C376.647 176.534 377.071 177.405 377.538 178.252C377.582 178.364 377.639 178.47 377.709 178.567C377.737 178.607 377.761 178.647 377.789 178.682C378.432 179.808 379.141 180.895 379.914 181.936C381.028 183.849 381.873 185.819 382.21 188.007C381.901 194.98 379.234 201.006 374.751 204.582C371.125 207.459 366.686 208.394 362.147 207.261C358.92 206.119 356.486 203.348 356.412 199.744C356.338 196.009 358.8 193.352 361.228 190.846C361.366 190.707 361.474 190.542 361.547 190.36C362.622 189.355 363.633 188.283 364.573 187.15C364.814 186.866 364.934 186.499 364.908 186.127C364.881 185.756 364.711 185.409 364.433 185.162C364.155 184.914 363.791 184.785 363.419 184.802C363.047 184.82 362.696 184.981 362.442 185.253L362.424 185.271C359.898 187.98 356.945 190.255 353.681 192.006C350.424 193.677 346.876 194.769 343.29 194.958ZM323.547 233.875C329.103 222.72 340.604 214.079 348.028 209.394C349.176 208.703 350.376 208.091 351.672 207.778C353.5 207.339 355.128 207.778 356.689 208.509C357.745 209.275 358.917 209.867 360.161 210.262C362.013 210.853 363.945 211.158 365.89 211.165C369.89 211.162 373.768 209.783 376.872 207.259C380.909 204.048 383.695 199.206 384.925 193.541C385.054 193.412 385.155 193.258 385.221 193.088C385.287 192.918 385.317 192.736 385.308 192.554C385.299 192.104 385.312 191.654 385.348 191.205C385.404 190.804 385.445 190.403 385.491 190.001C386.008 186.76 387.699 183.822 390.242 181.748C391.693 180.817 393.16 179.91 394.641 179.041C397.98 177.065 401.427 175.281 404.967 173.695C408.491 172.142 412.129 170.827 415.803 170.109C417.603 169.743 419.44 169.59 421.276 169.652C423.132 169.759 424.973 170.042 426.776 170.496C430.432 171.399 433.972 172.89 437.365 174.672C440.767 176.488 444.025 178.561 447.109 180.875C453.33 185.49 458.967 190.908 464.094 196.728C467.643 200.802 470.927 205.1 473.926 209.594C474.097 210.397 474.103 211.061 473.704 211.262C473.036 211.593 471.761 211.324 471.037 211.314L469.46 211.296C468.739 211.204 468.015 211.141 467.288 211.107C461.377 210.85 455.557 212.357 450.378 214.974C445.199 217.591 440.546 221.365 437.209 226.248C435.641 228.519 434.474 231.041 433.759 233.706C433.358 234.74 432.639 236.002 431.686 235.436C431.087 234.767 430.475 234.108 429.852 233.46C428.562 232.135 427.243 230.851 425.839 229.647C424.434 228.443 422.999 227.289 421.52 226.185C421.221 225.954 420.841 225.852 420.466 225.901C420.09 225.95 419.75 226.145 419.519 226.445C419.288 226.745 419.185 227.125 419.234 227.5C419.283 227.875 419.479 228.216 419.779 228.447L419.813 228.469C420.615 229.109 421.418 229.759 422.207 230.428C424.651 232.677 428.797 236.197 427.757 239.359C426.736 242.478 423.222 243.019 420.144 243.072C419.116 243.053 418.093 243.019 417.072 242.963C414.953 242.833 412.84 242.654 410.749 242.323C410.229 242.255 409.703 242.169 409.189 242.072C408.676 241.976 408.15 241.896 407.63 241.781L406.089 241.444C405.569 241.336 405.124 241.181 404.638 241.055C400.826 239.873 397.43 237.443 394.346 234.583C391.262 231.724 388.406 228.461 385.196 225.371C383.58 223.83 381.873 222.315 379.89 221.046C378.889 220.389 377.826 219.833 376.716 219.385C375.576 218.916 374.38 218.597 373.158 218.438C371.9 218.258 370.622 218.281 369.371 218.506C368.117 218.722 366.907 219.142 365.789 219.75C364.65 220.362 363.624 221.166 362.757 222.126C361.882 223.112 361.205 224.258 360.765 225.501C360.339 226.744 360.16 228.057 360.239 229.368C360.31 230.628 360.572 231.87 361.015 233.052C361.243 233.659 361.507 234.252 361.804 234.828C361.863 235.064 361.873 235.309 361.833 235.549C361.792 235.789 361.702 236.017 361.569 236.221C361.112 236.867 360.221 237.09 359.438 237.254C355.904 237.797 352.405 238.545 348.957 239.494C346.638 240.144 344.342 240.886 342.074 241.761C340.943 242.241 339.853 242.646 338.663 243.268C338.081 243.559 337.531 243.93 336.978 244.272C336.452 244.673 335.892 245.036 335.412 245.512C334.375 246.417 333.502 247.495 332.832 248.698C332.658 249.007 332.502 249.325 332.364 249.651L331.987 250.655L331.746 251.722C331.69 252.085 331.654 252.451 331.638 252.818C331.618 253.316 331.64 253.815 331.706 254.309C331.752 254.823 331.82 255.354 331.907 255.914C332.284 258.523 330.861 260.455 329.76 262.191C329.4 262.628 329.07 263.087 328.772 263.568C327.97 264.882 327.339 266.407 327.213 268.069C327.195 268.297 327.185 268.526 327.185 268.755C327.159 268.858 327.153 268.965 327.167 269.07C327.189 269.281 327.213 269.487 327.235 269.698C327.247 269.794 327.253 269.899 327.263 269.983C327.384 271.063 327.504 272.136 327.622 273.216C327.56 274.317 327.319 275.369 326.691 276.226C325.688 277.618 323.996 277.757 322.879 276.454C322.13 275.582 321.839 274.357 321.616 273.21C319.439 260.255 317.527 245.941 323.545 233.873L323.547 233.875ZM251.688 285.523C251.889 284.353 252.691 283.775 253.653 283.5C255.846 283.5 258.188 284.483 260.118 286.281C261.679 287.721 263.362 289.023 265.149 290.17C267.079 291.518 269.387 293.054 270.003 295.488C270.872 298.899 267.667 300.37 265.097 299.148C264.834 298.999 264.583 298.845 264.332 298.69C264.302 298.674 264.273 298.655 264.246 298.634C264.147 298.556 264.037 298.493 263.921 298.445C259.506 295.692 256.199 292.666 253.167 289.502C252.338 288.326 251.447 286.965 251.686 285.521L251.688 285.523ZM286.767 387.612C286.767 387.578 286.749 387.55 286.745 387.515C286.773 387.539 286.804 387.56 286.837 387.578L286.767 387.612ZM371.677 321.291C370.659 330.349 368.199 337.01 364.308 341.157C357.415 348.514 348.255 351.682 337.072 351.682C319.231 351.682 296.224 343.612 269.022 331.596C269.022 331.596 269.022 331.596 269.01 331.596C268.998 331.596 268.998 331.596 268.992 331.584C265.781 330.213 262.594 328.796 259.47 327.289C256.346 325.782 253.249 324.211 250.35 322.417C247.45 320.623 244.667 318.665 242.6 316.214C241.539 315.005 240.639 313.663 239.921 312.223C239.25 310.892 238.888 309.426 238.864 307.935C238.887 307.257 239.017 306.587 239.247 305.948C239.483 305.332 239.839 304.767 240.292 304.287C241.23 303.294 242.492 302.67 243.85 302.527C244.543 302.44 245.245 302.467 245.929 302.607C247.346 302.91 248.652 303.597 249.704 304.594L250.105 304.995C250.231 305.11 250.408 305.31 250.562 305.463C250.877 305.794 251.184 306.125 251.516 306.446C252.821 307.755 254.239 308.945 255.754 310.004C257.267 311.041 258.856 311.966 260.505 312.769C263.75 314.374 267.061 315.608 270.338 316.875C270.69 317.015 271.083 317.01 271.432 316.86C271.78 316.71 272.054 316.428 272.194 316.076C272.334 315.724 272.329 315.331 272.179 314.983C272.03 314.634 271.748 314.36 271.396 314.22C268.169 312.883 264.948 311.525 261.92 309.976C260.425 309.216 258.99 308.343 257.626 307.367C256.281 306.387 255.021 305.296 253.857 304.106C253.56 303.815 253.275 303.504 252.988 303.193C252.834 303.033 252.72 302.908 252.531 302.714L251.993 302.176C251.257 301.464 250.426 300.857 249.525 300.37C249.072 300.12 248.602 299.901 248.12 299.714C247.626 299.537 247.121 299.394 246.607 299.286C245.572 299.065 244.507 299.015 243.455 299.138C243.179 299.167 242.904 299.211 242.632 299.268C241.491 299.401 240.335 299.239 239.274 298.799C238.213 298.358 237.283 297.652 236.572 296.75C233.887 291.605 234.465 287.583 236.702 285.545C238.799 283.636 242.568 283.41 245.779 286.584C245.875 286.717 245.991 286.835 246.122 286.933C246.15 286.961 246.174 286.989 246.202 287.02L246.926 287.822C251.706 293.1 256.281 298.136 263.983 302.505C264.715 303.146 265.499 303.726 266.325 304.241C267.97 305.298 269.951 306.448 269.808 308.677C269.774 308.962 269.842 309.249 270 309.488C270.158 309.726 270.396 309.901 270.671 309.98C270.88 310.111 271.121 310.184 271.368 310.191C271.746 310.202 272.114 310.063 272.39 309.804C272.666 309.545 272.828 309.187 272.84 308.808C272.856 307.088 273.153 305.383 273.719 303.759C274.315 302.178 275.176 300.71 276.266 299.419C276.467 299.171 276.593 298.871 276.629 298.554C276.664 298.237 276.608 297.917 276.466 297.631L276.438 297.575C275.08 294.93 273.731 292.275 272.543 289.602C271.941 288.266 271.396 286.923 270.922 285.571C270.681 284.89 270.459 284.212 270.26 283.52C270.158 283.177 270.059 282.824 269.969 282.486C269.879 282.149 269.814 281.846 269.758 281.521C269.518 280.262 269.518 278.968 269.758 277.709C269.984 276.521 270.509 275.411 271.283 274.482C271.998 273.633 272.989 273.064 274.083 272.877C275.144 272.7 276.29 272.933 277.384 273.479C278.521 274.089 279.541 274.897 280.394 275.866C281.308 276.895 282.115 278.015 282.802 279.208C284.218 281.67 285.502 284.439 286.999 287.096C288.496 289.753 290.146 292.419 292.305 294.789C293.391 296.006 294.616 297.091 295.955 298.022C297.345 298.98 298.882 299.703 300.506 300.163H300.518C300.54 300.163 300.571 300.163 300.599 300.175L300.651 300.193C303.974 300.833 307.299 301.433 310.622 302.031C313.945 302.629 317.276 303.235 320.605 303.801L330.6 305.515C333.929 306.097 337.264 306.647 340.602 307.195C340.968 307.249 341.342 307.159 341.643 306.943C341.945 306.727 342.15 306.403 342.217 306.038C342.284 305.674 342.206 305.297 342.001 304.989C341.795 304.68 341.478 304.464 341.115 304.385L336.351 303.432C336.333 303.424 336.314 303.416 336.295 303.41C329.874 301.622 325.295 296.607 324.055 290.286C323.992 289.401 323.912 288.498 323.81 287.573C323.885 286.076 324.258 284.608 324.905 283.255C327.006 280 330.524 278.577 333.478 277.965C336.321 277.612 338.109 279.422 339.47 281.656C339.838 282.457 340.32 283.201 340.903 283.863C342.48 285.669 344.633 286.815 346.842 287.335C348.844 287.774 350.914 287.796 352.924 287.397C352.956 287.396 352.987 287.392 353.017 287.385C354.69 287.048 356.649 286.582 358.322 287.218C359.43 287.62 360.247 288.486 360.943 289.426C361.515 290.443 362.091 291.432 362.663 292.417C362.681 292.452 362.691 292.486 362.709 292.52C365.474 297.46 369.18 302.589 370.78 308.059C372 312.153 371.835 316.831 371.675 321.291H371.677ZM406.858 344.462C406.855 344.434 406.855 344.405 406.858 344.376C406.874 344.39 406.89 344.405 406.904 344.422C406.885 344.432 406.869 344.445 406.856 344.46L406.858 344.462ZM461.417 296.67C461.182 296.995 460.959 297.304 460.761 297.613C455.535 302.553 450.18 307.486 444.695 312.41L438.607 317.304C435.021 319.8 431.432 322.3 427.841 324.803C424.095 327.412 420.342 330.384 416.03 331.993C406.486 335.545 397.737 329.531 390.529 323.74C387.331 320.364 383.99 316.6 380.592 312.374C380.435 312.108 380.242 311.864 380.021 311.649C377.177 308.079 374.304 304.185 371.454 299.924C371.414 299.772 371.353 299.626 371.271 299.491C369.265 296.31 366.799 292.506 367.977 288.571C369.102 284.812 372.939 284.447 376.366 284.692C380.01 285.155 383.757 286.381 387.572 287.427C391.386 288.472 395.293 289.454 399.24 290.168C403.184 290.881 407.163 291.38 411.16 291.665C419.138 292.253 427.145 292.042 435.055 291.402C438.186 291.156 441.311 290.859 444.433 290.511C446.655 290.34 448.878 290.167 451.103 289.991C453.649 289.791 456.489 289.289 459.001 289.957C460.532 290.359 462.175 291.276 462.661 292.933C463.139 294.522 462.256 295.51 461.417 296.67ZM490.813 259.376C490.534 263.094 489.51 266.686 487.564 269.748C485.617 272.81 482.83 275.335 479.654 277.309C476.477 279.284 472.919 280.793 469.271 282.005C465.587 283.201 461.835 284.174 458.034 284.919C450.398 286.438 442.602 287.327 434.788 287.929C426.975 288.531 419.169 288.767 411.413 288.203C407.538 287.93 403.681 287.45 399.858 286.765C396.046 286.074 392.273 285.149 388.499 284.092C386.608 283.566 384.718 283.018 382.782 282.499C380.845 281.979 378.853 281.495 376.762 281.258C374.701 281.045 372.627 281.001 370.559 281.128C368.526 281.23 366.516 281.443 364.527 281.71C360.546 282.252 356.617 283.074 352.774 283.917C351.094 284.315 349.346 284.334 347.657 283.973C346.036 283.596 344.551 282.769 343.527 281.591C343.022 281.033 342.637 280.376 342.398 279.661C342.159 278.946 342.071 278.19 342.139 277.44C342.287 275.961 343.11 274.538 344.326 273.39C345.542 272.242 347.135 271.364 348.833 270.621C350.57 269.891 352.359 269.291 354.185 268.827C361.621 266.959 369.461 266.315 377.261 265.937H377.273C377.646 265.918 377.995 265.753 378.248 265.479C378.501 265.205 378.636 264.843 378.626 264.471C378.616 264.098 378.46 263.744 378.192 263.485C377.924 263.225 377.566 263.081 377.193 263.082C373.218 263.1 369.237 263.253 365.257 263.63C361.278 264.007 357.295 264.561 353.35 265.56C351.349 266.052 349.389 266.693 347.484 267.479C346.505 267.891 345.555 268.369 344.641 268.911C344.24 269.146 343.858 269.397 343.481 269.672C341.796 270.541 340.112 271.426 338.398 272.224C336.65 273.041 334.903 273.84 333.04 272.692C332.075 272.09 331.413 271.127 330.847 270.139C330.669 269.563 330.605 268.958 330.659 268.358C330.813 266.325 332.178 264.302 333.978 262.749C334.852 261.99 335.799 261.317 336.805 260.742C337.045 260.674 337.267 260.553 337.455 260.389C338.386 259.903 339.386 259.476 340.385 259.065C345.189 257.156 350.322 255.894 355.491 254.953C360.691 254.044 365.939 253.431 371.209 253.119C371.578 253.085 371.919 252.91 372.161 252.631C372.403 252.352 372.527 251.989 372.508 251.62C372.489 251.25 372.328 250.903 372.058 250.65C371.788 250.397 371.431 250.259 371.061 250.263C365.662 250.468 360.282 251.004 354.949 251.869C351.638 252.418 348.356 253.135 345.117 254.016C345.06 254.016 344.996 254.028 344.934 254.038C342.753 254.524 335.517 256.928 335.121 253.267C335.121 253.171 335.109 253.067 335.121 252.976C335.131 252.755 335.152 252.534 335.184 252.314C335.236 252.098 335.28 251.875 335.326 251.652L335.571 251.006C335.658 250.787 335.761 250.575 335.88 250.372C336.358 249.508 336.984 248.735 337.73 248.088C339.227 246.665 341.179 245.843 343.349 244.952C345.484 244.117 347.667 243.358 349.882 242.706C354.331 241.406 358.876 240.467 363.476 239.897C364.206 239.801 364.932 239.726 365.663 239.656C366.005 239.732 366.361 239.699 366.684 239.564C367.918 239.472 369.146 239.403 370.374 239.375C372.643 239.299 374.913 239.425 377.159 239.752H377.171C377.538 239.805 377.911 239.712 378.21 239.494C378.51 239.277 378.714 238.951 378.777 238.586C378.841 238.221 378.761 237.845 378.553 237.539C378.345 237.232 378.025 237.019 377.663 236.943C376.754 236.773 375.847 236.664 374.944 236.578C374.747 236.46 374.526 236.391 374.298 236.377C371.97 236.236 369.725 235.468 367.798 234.156C366.239 233.116 364.098 231.644 363.76 229.655C363.639 228.641 363.746 227.612 364.076 226.645C364.691 225 365.902 223.646 367.469 222.852C368.263 222.423 369.122 222.126 370.011 221.973C370.901 221.808 371.811 221.79 372.706 221.921C373.638 222.041 374.55 222.284 375.419 222.642C376.323 223.009 377.189 223.462 378.006 223.996C379.685 225.064 381.255 226.44 382.78 227.891C385.836 230.815 388.707 234.112 392.01 237.138C393.668 238.685 395.452 240.092 397.344 241.342C399.292 242.629 401.408 243.642 403.633 244.352C404.193 244.5 404.781 244.683 405.323 244.797L406.962 245.15C407.51 245.271 408.064 245.351 408.614 245.453C409.163 245.556 409.709 245.654 410.265 245.722C412.472 246.065 414.68 246.248 416.901 246.379C425.771 246.842 434.618 245.841 443.172 243.832C443.531 243.742 443.84 243.517 444.037 243.204C444.233 242.891 444.3 242.515 444.225 242.153C444.15 241.791 443.938 241.473 443.633 241.264C443.328 241.055 442.955 240.972 442.59 241.033H442.578C442.532 241.033 442.486 241.045 442.436 241.055C440.295 240.888 438.296 240.334 437.467 238.141C437.028 236.975 436.994 235.719 437.114 234.475C437.732 232.218 438.729 230.082 440.062 228.158C442.998 223.852 447.242 220.402 451.947 218.008C456.653 215.614 461.949 214.278 467.156 214.513C468.14 214.558 469.12 214.663 470.092 214.828C472.753 215.45 475.375 216.313 477.545 218.02C479.258 219.369 480.601 221.247 481.811 223.218C483.959 227.603 485.791 232.136 487.293 236.783C488.48 240.461 489.415 244.215 490.092 248.02C490.732 251.825 491.098 255.649 490.813 259.374V259.376Z" fill="black"/>
<path d="M455.63 167.52C461.357 163.979 467.09 160.459 472.887 157.058L477.252 154.513L481.634 152.027L486.049 149.609L490.492 147.241C496.431 144.117 502.465 141.187 508.608 138.53C514.75 135.873 521.027 133.568 527.442 131.856H527.466C527.82 131.751 528.119 131.514 528.301 131.194C528.484 130.874 528.536 130.496 528.446 130.139C528.357 129.781 528.132 129.472 527.82 129.276C527.509 129.08 527.133 129.012 526.772 129.087C520.084 130.642 513.608 132.873 507.317 135.474C501.027 138.075 494.894 141.018 488.868 144.143C482.842 147.267 476.953 150.638 471.153 154.138C465.354 157.638 459.655 161.306 454.069 165.127C453.765 165.339 453.556 165.661 453.485 166.025C453.415 166.389 453.488 166.765 453.69 167.076C453.892 167.387 454.207 167.607 454.568 167.689C454.929 167.772 455.309 167.712 455.626 167.52H455.63Z" fill="black"/>
<path d="M512.876 297.502C499.738 310.602 486.494 323.589 472.696 336C458.899 348.411 444.744 360.405 430.209 371.919C422.929 377.662 415.585 383.327 408.096 388.789C400.635 394.293 393.048 399.616 385.336 404.758C377.653 409.94 369.791 414.84 361.84 419.578C353.89 424.315 345.801 428.808 337.559 432.988C337.23 433.159 336.98 433.451 336.862 433.803C336.745 434.155 336.768 434.538 336.928 434.873C337.088 435.208 337.372 435.467 337.72 435.596C338.068 435.725 338.452 435.714 338.792 435.565C347.31 431.704 355.547 427.273 363.606 422.572C371.665 417.87 379.565 412.896 387.311 407.708C395.056 402.521 402.714 397.203 410.221 391.681C417.758 386.201 425.144 380.52 432.467 374.761C447.049 363.168 461.244 351.11 475.052 338.589C488.82 326.049 502.329 313.19 514.945 299.475C515.191 299.199 515.32 298.838 515.305 298.468C515.291 298.099 515.133 297.75 514.867 297.494C514.6 297.238 514.244 297.095 513.874 297.096C513.505 297.097 513.15 297.241 512.884 297.498L512.876 297.502Z" fill="black"/>
<path d="M541.896 265.135L541.86 265.171C540.714 266.325 539.615 267.515 538.525 268.713C537.435 269.911 536.366 271.121 535.302 272.347C534.239 273.573 533.197 274.807 532.178 276.065L530.653 277.957C530.161 278.603 529.65 279.236 529.174 279.892L529.144 279.932C528.933 280.222 528.84 280.581 528.881 280.938C528.923 281.294 529.097 281.622 529.369 281.856C529.641 282.09 529.991 282.213 530.35 282.201C530.708 282.19 531.049 282.043 531.305 281.792C531.885 281.22 532.439 280.622 533.007 280.036L534.662 278.23C535.762 277.026 536.833 275.802 537.897 274.568C538.961 273.334 540.01 272.09 541.033 270.822C542.057 269.553 543.082 268.289 544.056 266.983C544.277 266.693 544.38 266.33 544.343 265.967C544.305 265.604 544.13 265.27 543.854 265.031C543.578 264.793 543.221 264.67 542.856 264.687C542.492 264.703 542.148 264.858 541.894 265.121L541.896 265.135Z" fill="black"/>
<path d="M510.947 346.369C506.864 350.043 502.794 353.729 498.687 357.375C494.579 361.021 490.473 364.663 486.338 368.273C478.061 375.488 469.652 382.547 461.112 389.45C452.586 396.363 443.935 403.129 435.118 409.665C426.32 416.231 417.365 422.574 408.331 428.809C408.032 429.026 407.829 429.349 407.764 429.712C407.699 430.076 407.777 430.45 407.982 430.757C408.186 431.063 408.502 431.279 408.862 431.359C409.222 431.439 409.599 431.376 409.914 431.185C414.559 428.209 419.153 425.158 423.698 422.03C428.225 418.88 432.728 415.701 437.168 412.426C446.062 405.905 454.785 399.152 463.385 392.251C471.986 385.35 480.378 378.194 488.669 370.932C496.961 363.67 505.082 356.201 512.91 348.438C513.171 348.174 513.319 347.819 513.324 347.448C513.328 347.078 513.188 346.72 512.933 346.45C512.678 346.181 512.328 346.021 511.958 346.005C511.587 345.988 511.225 346.117 510.947 346.363V346.369Z" fill="black"/>
<path d="M323.234 158.928C322.924 158.214 322.473 157.569 321.907 157.034C321.746 156.885 321.569 156.756 321.378 156.649C321.066 156.474 320.723 156.362 320.368 156.32C320.013 156.278 319.653 156.307 319.309 156.404C318.965 156.501 318.643 156.665 318.363 156.886C318.082 157.108 317.848 157.382 317.673 157.694C317.298 158.376 317.065 159.127 316.987 159.901C316.908 160.598 316.927 161.303 317.043 161.994C317.157 162.686 317.359 163.361 317.645 164.001C317.957 164.711 318.401 165.355 318.954 165.899C319.131 166.068 319.33 166.214 319.546 166.331C319.856 166.498 320.197 166.603 320.548 166.638C320.899 166.674 321.254 166.64 321.592 166.539C321.93 166.437 322.245 166.27 322.518 166.047C322.792 165.824 323.018 165.55 323.186 165.239C323.547 164.552 323.773 163.803 323.854 163.032C323.931 162.335 323.919 161.63 323.816 160.937C323.717 160.243 323.521 159.567 323.234 158.928Z" fill="black"/>
<path d="M340.206 155.33C339.896 154.616 339.445 153.971 338.88 153.436C338.719 153.287 338.541 153.158 338.35 153.05C338.038 152.876 337.695 152.764 337.34 152.722C336.985 152.68 336.625 152.709 336.281 152.806C335.937 152.903 335.616 153.067 335.335 153.288C335.055 153.509 334.82 153.784 334.646 154.096C334.271 154.778 334.037 155.529 333.959 156.303C333.88 157 333.899 157.705 334.016 158.396C334.129 159.088 334.331 159.763 334.618 160.403C334.929 161.113 335.373 161.757 335.926 162.301C336.103 162.473 336.302 162.621 336.518 162.741C336.829 162.908 337.169 163.013 337.52 163.048C337.871 163.084 338.226 163.05 338.564 162.949C338.902 162.847 339.217 162.68 339.49 162.457C339.764 162.234 339.991 161.96 340.158 161.649C340.519 160.962 340.746 160.213 340.826 159.442C340.904 158.745 340.891 158.04 340.788 157.347C340.69 156.65 340.494 155.972 340.206 155.33Z" fill="black"/>
<path d="M349.734 175.914C349.679 175.628 349.534 175.366 349.319 175.169C349.105 174.971 348.832 174.848 348.542 174.818C348.252 174.787 347.96 174.851 347.708 174.999C347.457 175.147 347.26 175.373 347.147 175.641L346.896 176.243C346.865 176.376 346.84 176.51 346.824 176.645C346.8 176.799 346.764 176.956 346.728 177.112C346.664 177.423 346.575 177.728 346.483 178.025C346.3 178.601 346.038 179.148 345.704 179.651C345.378 180.152 344.976 180.6 344.513 180.979C344.272 181.183 344.02 181.374 343.758 181.549C343.493 181.74 343.186 181.876 342.905 182.073L342.67 182.237C342.399 182.431 342.204 182.714 342.12 183.037C342.037 183.36 342.07 183.702 342.214 184.003C342.357 184.304 342.603 184.544 342.907 184.682C343.211 184.82 343.553 184.846 343.874 184.756C344.322 184.633 344.762 184.486 345.193 184.314C345.633 184.124 346.054 183.893 346.451 183.624C347.286 183.081 348.003 182.375 348.558 181.547C349.114 180.732 349.504 179.815 349.706 178.848L349.824 178.136C349.842 177.895 349.868 177.658 349.87 177.419C349.872 177.181 349.87 176.94 349.846 176.699C349.827 176.435 349.789 176.173 349.734 175.914Z" fill="black"/>
<path d="M341.388 146.657C340.584 146.016 339.634 145.581 338.623 145.391C337.657 145.207 336.666 145.197 335.697 145.361C334.803 145.505 333.931 145.763 333.103 146.128C332.32 146.464 331.579 146.891 330.895 147.4C330.531 147.669 330.272 148.058 330.165 148.498C330.058 148.939 330.109 149.403 330.31 149.81C330.511 150.216 330.848 150.539 331.263 150.722C331.677 150.905 332.143 150.937 332.579 150.811L332.627 150.797L334.582 150.249C335.176 150.09 335.779 149.964 336.388 149.872C336.919 149.797 337.456 149.767 337.993 149.784C338.503 149.803 339.01 149.866 339.51 149.97L339.803 150.028C340.222 150.111 340.657 150.051 341.038 149.859C341.42 149.666 341.726 149.352 341.909 148.966C342.092 148.58 342.141 148.144 342.048 147.727C341.955 147.309 341.726 146.935 341.396 146.663L341.388 146.657Z" fill="black"/>
<path d="M282.693 220.115C279.823 220.463 277.193 221.891 275.341 224.111C273.488 226.33 272.551 229.172 272.721 232.058C272.892 234.944 274.157 237.657 276.258 239.642C278.359 241.628 281.139 242.737 284.03 242.744C284.495 242.744 284.96 242.715 285.422 242.658C286.902 242.479 288.333 242.01 289.632 241.278C290.931 240.546 292.073 239.565 292.993 238.392C293.913 237.219 294.592 235.876 294.993 234.439C295.394 233.003 295.508 231.502 295.329 230.022C295.15 228.542 294.681 227.112 293.949 225.813C293.217 224.514 292.236 223.372 291.063 222.452C289.89 221.532 288.546 220.852 287.11 220.451C285.674 220.05 284.173 219.936 282.693 220.115ZM291.924 230.436C292.051 231.469 291.973 232.517 291.693 233.52C291.414 234.523 290.939 235.46 290.296 236.279C288.997 237.931 287.097 239.001 285.011 239.254C282.924 239.508 280.823 238.925 279.165 237.633C277.874 236.61 276.932 235.211 276.471 233.628C276.01 232.046 276.052 230.36 276.591 228.803C277.131 227.246 278.141 225.895 279.483 224.937C280.824 223.98 282.43 223.463 284.078 223.458C286.012 223.465 287.877 224.178 289.322 225.464C290.767 226.749 291.693 228.518 291.926 230.438L291.924 230.436Z" fill="black"/>
<path d="M140.868 178.995L164.211 197.275C166.005 198.668 168.273 199.3 170.528 199.035C171.645 198.904 172.725 198.553 173.706 198.002C174.686 197.451 175.547 196.711 176.239 195.824L194.681 172.288C194.783 172.375 194.881 172.459 194.99 172.539C195.835 173.229 196.675 173.922 197.526 174.606C198.566 175.441 199.599 176.28 200.632 177.112C203.241 179.219 205.938 181.401 208.611 183.516C213.112 187.101 216.549 189.827 219.77 192.345C223.968 195.634 227.797 198.61 231.433 201.397C227.189 203.447 223.471 206.442 220.565 210.152C210.034 223.597 212.404 243.096 225.842 253.627C231.956 258.41 239.643 260.724 247.381 260.109C255.12 259.494 262.345 255.996 267.627 250.307C267.946 250.592 268.273 250.861 268.598 251.11C272.986 254.58 278.42 256.462 284.014 256.45C289.232 256.458 294.322 254.837 298.575 251.813C302.828 248.789 306.032 244.514 307.739 239.583C309.446 234.651 309.571 229.31 308.098 224.304C306.624 219.298 303.625 214.877 299.519 211.657C299.194 211.4 298.851 211.149 298.502 210.903C302.753 204.415 304.413 196.567 303.153 188.913C301.893 181.26 297.806 174.358 291.699 169.575C278.254 159.044 258.756 161.408 248.225 174.847C245.305 178.571 243.282 182.917 242.313 187.549C238.731 184.681 234.91 181.661 230.712 178.377C227.502 175.846 224.03 173.159 219.475 169.65C216.78 167.559 214.021 165.464 211.348 163.429C210.291 162.626 209.231 161.819 208.168 161.007C200.851 155.444 193.17 149.715 185.34 143.986C179.051 139.401 170.725 133.381 162.062 127.503C160.683 126.569 159 126.192 157.354 126.45C155.708 126.707 154.221 127.58 153.193 128.891C152.165 130.203 151.673 131.855 151.816 133.515C151.959 135.176 152.726 136.72 153.963 137.836C155.466 139.184 157.036 140.583 158.842 142.17L139.419 166.955C138.016 168.744 137.38 171.017 137.651 173.274C137.923 175.532 139.08 177.59 140.868 178.995ZM142.108 169.08L162.54 143.019C162.809 142.674 162.937 142.238 162.897 141.802C162.856 141.366 162.651 140.962 162.323 140.671C160.004 138.638 158.079 136.937 156.263 135.297C155.68 134.761 155.32 134.025 155.256 133.235C155.191 132.446 155.426 131.661 155.913 131.037C156.401 130.412 157.106 129.995 157.887 129.866C158.669 129.738 159.47 129.909 160.132 130.345C168.745 136.192 177.042 142.196 183.315 146.765C191.129 152.476 198.788 158.187 206.085 163.744C207.142 164.547 208.204 165.359 209.265 166.166C211.932 168.189 214.683 170.284 217.376 172.369C221.927 175.87 225.383 178.553 228.593 181.077C233.694 185.069 238.225 188.669 242.455 192.072C242.696 192.264 242.983 192.389 243.288 192.432C243.592 192.475 243.903 192.436 244.187 192.318C244.472 192.2 244.719 192.008 244.904 191.762C245.088 191.515 245.203 191.224 245.237 190.918C245.79 185.829 247.757 180.996 250.914 176.966C260.281 165.018 277.624 162.919 289.574 172.276C295.225 176.701 298.924 183.159 299.881 190.272C300.838 197.386 298.978 204.592 294.697 210.353C294.555 210.545 294.455 210.765 294.403 210.998C294.351 211.231 294.348 211.472 294.394 211.706C294.44 211.94 294.535 212.163 294.672 212.358C294.809 212.554 294.985 212.719 295.189 212.843C297.816 214.423 300.078 216.543 301.824 219.062C303.571 221.582 304.762 224.444 305.319 227.458C305.876 230.473 305.787 233.571 305.056 236.549C304.326 239.526 302.971 242.314 301.082 244.729C299.336 246.972 297.161 248.847 294.685 250.244C292.209 251.641 289.48 252.533 286.656 252.868C285.777 252.973 284.891 253.026 284.006 253.029C281.16 253.028 278.342 252.462 275.716 251.364C273.091 250.266 270.71 248.657 268.711 246.631C268.542 246.462 268.34 246.329 268.117 246.243C267.893 246.156 267.655 246.117 267.416 246.128C267.177 246.14 266.943 246.201 266.729 246.308C266.515 246.416 266.326 246.567 266.174 246.752C261.606 252.293 255.053 255.83 247.914 256.609C240.774 257.388 233.613 255.347 227.957 250.922C216.004 241.554 213.911 224.215 223.268 212.261C226.412 208.245 230.615 205.187 235.404 203.432C235.693 203.327 235.949 203.146 236.143 202.907C236.337 202.669 236.462 202.382 236.506 202.077C236.55 201.774 236.513 201.464 236.397 201.18C236.282 200.896 236.093 200.648 235.849 200.462C231.549 197.177 226.98 193.639 221.885 189.644C218.674 187.138 215.237 184.427 210.748 180.831C208.081 178.724 205.39 176.546 202.786 174.445C201.752 173.611 200.713 172.772 199.673 171.939C198.835 171.259 198 170.575 197.161 169.888C196.607 169.431 196.053 168.979 195.493 168.53C195.189 168.28 194.808 168.142 194.414 168.14C194.352 168.14 194.283 168.14 194.213 168.153C193.988 168.178 193.769 168.248 193.571 168.359C193.373 168.47 193.199 168.62 193.059 168.799L173.545 193.699C173.131 194.234 172.614 194.68 172.026 195.013C171.437 195.345 170.788 195.557 170.117 195.636C168.763 195.792 167.402 195.413 166.325 194.578L142.995 176.292C141.922 175.45 141.227 174.218 141.062 172.865C140.897 171.512 141.275 170.148 142.114 169.074L142.108 169.08Z" fill="black"/>
<path d="M231.355 218.606C228.943 221.679 227.644 225.478 227.67 229.385C227.696 233.291 229.045 237.073 231.498 240.113C233.95 243.153 237.361 245.273 241.173 246.125C244.985 246.977 248.973 246.512 252.487 244.805C256 243.099 258.832 240.252 260.519 236.729C262.206 233.206 262.649 229.215 261.775 225.407C260.902 221.6 258.763 218.201 255.709 215.766C252.655 213.331 248.866 212.002 244.96 211.998C242.338 211.986 239.748 212.575 237.389 213.721C235.03 214.866 232.966 216.538 231.355 218.606ZM244.96 215.426C248.046 215.417 251.046 216.451 253.47 218.361C256.052 220.379 257.835 223.247 258.501 226.455C259.168 229.663 258.675 233.003 257.111 235.882C255.547 238.761 253.012 240.992 249.957 242.178C246.903 243.365 243.527 243.429 240.43 242.361C237.332 241.292 234.714 239.16 233.041 236.343C231.367 233.526 230.747 230.206 231.291 226.975C231.834 223.744 233.506 220.81 236.009 218.695C238.512 216.581 241.683 215.422 244.96 215.426Z" fill="black"/>
<path d="M261.954 207.539C264.979 209.919 268.717 211.212 272.566 211.212C273.27 211.212 273.973 211.17 274.673 211.085C278.636 210.605 282.311 208.764 285.07 205.878C287.829 202.992 289.502 199.239 289.803 195.257C290.105 191.276 289.017 187.313 286.724 184.044C284.431 180.775 281.076 178.402 277.23 177.33C273.384 176.258 269.285 176.552 265.632 178.164C261.978 179.775 258.997 182.603 257.195 186.166C255.393 189.729 254.883 193.807 255.751 197.704C256.618 201.602 258.811 205.077 261.954 207.539ZM261.713 185.426C262.83 183.992 264.219 182.794 265.802 181.901C267.384 181.008 269.128 180.438 270.932 180.223C271.495 180.155 272.061 180.12 272.628 180.12C274.831 180.123 277.003 180.652 278.961 181.663C280.918 182.674 282.606 184.139 283.884 185.934C285.161 187.73 285.991 189.805 286.304 191.986C286.618 194.167 286.405 196.392 285.685 198.474C284.964 200.557 283.757 202.437 282.163 203.959C280.568 205.48 278.634 206.599 276.52 207.221C274.406 207.844 272.174 207.952 270.009 207.537C267.845 207.122 265.811 206.196 264.077 204.837C261.192 202.572 259.322 199.256 258.879 195.615C258.437 191.974 259.457 188.306 261.715 185.416L261.713 185.426Z" fill="black"/>
<path d="M117.773 413.311C118.03 413.58 118.366 413.76 118.732 413.825C120.122 414.72 121.771 415.125 123.417 414.976C125.063 414.827 126.612 414.132 127.819 413.002L217.924 328.676C219.474 327.224 220.537 325.328 220.968 323.249C221.399 321.17 221.177 319.008 220.332 317.059L179.358 223.079C178.883 221.989 178.154 221.029 177.231 220.28C176.308 219.531 175.218 219.014 174.054 218.774C172.89 218.533 171.685 218.575 170.541 218.897C169.397 219.219 168.346 219.811 167.478 220.623L149.43 237.495C143.388 228.517 136.301 223.063 128.852 221.693C123.187 220.653 117.561 222.094 112.57 225.85C112.552 225.862 112.542 225.878 112.524 225.89C112.506 225.903 112.49 225.913 112.478 225.925L48.6034 281.71C48.5273 281.78 48.4568 281.857 48.3927 281.939C47.8481 282.372 47.3295 282.837 46.8396 283.331C34.8297 295.52 42.5854 314.766 44.7948 319.542L43.3901 320.856C41.7284 322.405 40.7488 324.549 40.6664 326.819C40.584 329.089 41.4055 331.299 42.9507 332.964L59.907 351.173C59.919 351.191 59.919 351.207 59.9291 351.225C67.0969 366.359 64.0528 380.608 60.2321 389.901C59.9485 390.59 59.9104 391.356 60.124 392.07C60.3377 392.784 60.7902 393.403 61.4057 393.823C62.0212 394.243 62.7624 394.439 63.5051 394.378C64.2478 394.317 64.947 394.002 65.4855 393.487L83.4592 376.451L117.773 413.311ZM63.6936 390.465C63.7043 390.452 63.7119 390.436 63.7156 390.419C63.7156 390.419 63.7277 390.419 63.7377 390.431L63.6936 390.465ZM150.111 241.548L150.293 241.378L169.814 223.131C170.282 222.694 170.847 222.376 171.463 222.203C172.079 222.03 172.727 222.007 173.354 222.136C173.98 222.265 174.567 222.542 175.064 222.945C175.561 223.348 175.955 223.864 176.211 224.45L217.183 318.434C217.746 319.733 217.893 321.174 217.606 322.56C217.318 323.946 216.61 325.209 215.578 326.178L125.479 410.502C125.012 410.94 124.447 411.259 123.83 411.433C123.214 411.607 122.565 411.631 121.938 411.502C121.311 411.372 120.724 411.094 120.227 410.691C119.73 410.287 119.337 409.77 119.082 409.183L85.3335 331.766C84.7713 330.467 84.6239 329.026 84.9112 327.64C85.1985 326.254 85.9066 324.991 86.9388 324.022L129.893 283.821C133.542 280.398 135.97 275.875 136.804 270.942L139.084 257.327C139.796 253.132 141.86 249.285 144.962 246.373L150.111 241.548ZM60.2 276.131L114.673 228.559C118.923 225.367 123.486 224.191 128.232 225.064C133.098 225.961 137.85 228.947 142.243 233.807C143.338 235.394 144.195 237.148 144.173 239.09C144.139 242.072 141.933 244.476 140.061 246.567C139.91 246.734 139.799 246.933 139.736 247.149C137.668 249.999 136.289 253.289 135.705 256.761L133.421 270.376C132.713 274.566 130.653 278.409 127.556 281.319L99.4463 307.622C98.655 308.218 97.7523 308.649 96.7915 308.89C93.8618 309.552 92.2805 307.457 90.8237 305.354C84.2619 290.459 73.4379 281.543 64.3357 279.087C63.2775 278.799 62.1988 278.593 61.109 278.471C60.7197 278.335 59.7043 278.118 59.4695 277.751C59.2348 277.384 59.7063 276.759 60.2 276.131ZM45.447 330.64C44.9864 330.147 44.6278 329.567 44.3917 328.934C44.1556 328.302 44.0467 327.629 44.0711 326.954C44.0955 326.279 44.2528 325.616 44.534 325.002C44.8152 324.388 45.2148 323.836 45.7098 323.376L63.5511 306.751C63.8181 306.637 64.0422 306.441 64.1912 306.191C64.2133 306.163 64.2314 306.129 64.2534 306.099L66.6233 303.892C68.046 302.664 69.5591 301.464 71.1865 300.528C72.9742 299.879 74.8827 299.629 76.7775 299.797C78.6723 299.964 80.5072 300.546 82.1529 301.5C88.5562 305.184 89.2585 311.814 86.9849 317.828C85.9455 319.672 84.5529 321.346 83.2204 322.945C83.0968 323.093 83.0108 323.27 82.9696 323.459C82.0536 324.883 81.5024 326.512 81.3649 328.2C81.2273 329.888 81.5076 331.584 82.181 333.139L103.917 383.004C103.91 383.204 103.955 383.403 104.048 383.58C104.927 385.282 106.767 390.132 102.844 389.508C101.359 389.273 99.7875 388.342 98.3326 387.423L45.447 330.64Z" fill="black"/>
<path d="M144.972 333.063C146.617 333.72 148.389 333.999 150.157 333.879C150.358 333.868 150.555 333.933 150.711 334.061C150.866 334.189 150.968 334.37 150.996 334.57L152.669 345.833C152.77 346.528 153.06 347.183 153.507 347.725C153.954 348.266 154.542 348.675 155.206 348.905C155.614 349.045 156.042 349.116 156.474 349.116C157.451 349.117 158.391 348.743 159.101 348.07L175.029 333.107C175.472 332.691 175.809 332.176 176.015 331.605C176.22 331.034 176.287 330.422 176.211 329.82C176.135 329.218 175.917 328.642 175.576 328.14C175.234 327.638 174.779 327.224 174.247 326.932L164.749 321.715C164.65 321.66 164.571 321.574 164.526 321.47C164.48 321.365 164.471 321.249 164.498 321.139L164.681 320.415C166.64 312.589 163.465 305.086 157.136 302.555C152.545 300.727 147.364 302.007 143.372 305.429C143.268 305.503 143.17 305.587 143.081 305.68C140.949 307.619 139.29 310.022 138.233 312.703C134.878 321.109 137.9 330.245 144.972 333.063ZM151.465 307.128C151.574 305.523 153.315 305.449 154.584 305.359C155.019 305.456 155.445 305.591 155.858 305.76C160.581 307.638 162.881 313.459 161.352 319.592L161.169 320.312C160.958 321.157 161.032 322.049 161.38 322.847C161.728 323.646 162.331 324.307 163.094 324.727L170.284 328.674C171.255 329.661 172.013 330.982 170.563 331.736C169.266 332.41 167.422 331.702 165.947 331.154L154.931 325.02C154.832 324.965 154.753 324.878 154.708 324.774C154.663 324.67 154.653 324.554 154.68 324.444L154.862 323.72C156.233 318.247 155.085 312.932 152.109 309.368C151.728 308.663 151.419 307.909 151.465 307.126V307.128ZM151.447 315.221C151.435 315.209 151.429 315.199 151.419 315.187C151.409 315.175 151.419 315.131 151.407 315.101C151.419 315.139 151.435 315.179 151.447 315.219V315.221Z" fill="black"/>
<path d="M91.5501 269.018C93.7294 267.268 95.8685 265.472 98.0015 263.668C100.135 261.864 102.236 260.026 104.355 258.208C106.474 256.39 108.547 254.518 110.623 252.651L113.726 249.842C114.745 248.887 115.779 247.948 116.786 246.978C117.056 246.725 117.217 246.377 117.236 246.007C117.255 245.638 117.129 245.275 116.885 244.996C116.642 244.717 116.3 244.544 115.931 244.512C115.562 244.481 115.195 244.594 114.908 244.827C113.812 245.696 112.743 246.593 111.659 247.476L108.448 250.171C106.319 251.977 104.212 253.811 102.099 255.637C99.9861 257.463 97.9032 259.323 95.8343 261.2C93.7655 263.076 91.6946 264.95 89.6679 266.875C89.3977 267.128 89.2363 267.476 89.2178 267.846C89.1993 268.215 89.325 268.578 89.5685 268.857C89.812 269.136 90.1543 269.309 90.5232 269.341C90.8921 269.372 91.2588 269.259 91.5461 269.026L91.5501 269.018Z" fill="black"/>
<path d="M107.411 271.43C105.338 273.3 103.271 275.18 101.244 277.105C100.974 277.358 100.813 277.706 100.794 278.076C100.776 278.445 100.901 278.808 101.145 279.087C101.388 279.366 101.731 279.539 102.1 279.571C102.469 279.602 102.835 279.489 103.123 279.256C105.302 277.506 107.441 275.71 109.574 273.906C111.707 272.102 113.808 270.264 115.927 268.446C118.046 266.628 120.119 264.756 122.196 262.889L125.298 260.08C126.318 259.125 127.351 258.186 128.358 257.216C128.629 256.963 128.79 256.615 128.808 256.245C128.827 255.876 128.701 255.513 128.458 255.234C128.214 254.955 127.872 254.782 127.503 254.75C127.134 254.719 126.767 254.832 126.48 255.065C125.385 255.934 124.315 256.831 123.231 257.714L120.021 260.409C117.892 262.215 115.785 264.049 113.672 265.875C111.559 267.701 109.48 269.555 107.411 271.43Z" fill="black"/>
<path d="M257.86 484.064C261.099 469.956 223.887 449.372 174.744 438.09C125.602 426.808 83.1379 429.099 79.8988 443.208C76.6596 457.317 113.872 477.9 163.014 489.183C212.157 500.465 254.621 498.173 257.86 484.064Z" fill="black"/>
<path d="M208.27 511.868C195.172 511.066 182.145 509.186 169.258 506.651C166.048 505.997 162.821 505.339 159.614 504.626C156.408 503.914 153.215 503.139 150.026 502.347C143.651 500.755 137.336 498.935 131.063 496.967C130.709 496.865 130.33 496.903 130.004 497.075C129.677 497.246 129.43 497.536 129.313 497.886C129.196 498.235 129.218 498.616 129.375 498.949C129.533 499.282 129.812 499.542 130.156 499.674C136.411 501.911 142.774 503.828 149.178 505.586C155.581 507.343 162.056 508.846 168.574 510.131C171.837 510.759 175.106 511.349 178.387 511.874C181.668 512.4 184.962 512.838 188.261 513.237C194.861 514.024 201.505 514.539 208.152 514.716C208.523 514.722 208.882 514.582 209.153 514.327C209.423 514.072 209.584 513.722 209.6 513.351C209.617 512.979 209.488 512.616 209.241 512.338C208.994 512.06 208.649 511.89 208.278 511.862L208.27 511.868Z" fill="black"/>
<path d="M117.478 491.986C115.741 491.16 113.991 490.369 112.261 489.562L107.054 487.13C105.32 486.328 103.602 485.479 101.88 484.646L96.7434 482.094C96.4175 481.934 96.0431 481.904 95.696 482.01C95.3489 482.116 95.0551 482.35 94.874 482.665C94.6929 482.979 94.6381 483.351 94.7207 483.704C94.8032 484.057 95.017 484.366 95.3186 484.568C96.1354 485.11 96.9741 485.613 97.8109 486.123C98.6477 486.633 99.5086 487.098 100.363 487.57C102.075 488.515 103.825 489.388 105.581 490.227C107.337 491.065 109.131 491.852 110.939 492.582C112.747 493.313 114.565 494.017 116.413 494.635C116.758 494.748 117.133 494.725 117.461 494.572C117.79 494.418 118.049 494.146 118.184 493.809C118.319 493.472 118.322 493.097 118.191 492.758C118.06 492.42 117.805 492.144 117.478 491.986Z" fill="black"/>
<path d="M172.66 154.124L174.54 155.729C175.801 156.793 177.079 157.836 178.373 158.86C179.665 159.883 180.959 160.905 182.284 161.892C183.608 162.879 184.922 163.873 186.279 164.818C186.577 165.029 186.944 165.119 187.306 165.068C187.668 165.017 187.996 164.83 188.225 164.544C188.453 164.259 188.563 163.897 188.533 163.533C188.503 163.169 188.335 162.83 188.063 162.586C186.843 161.471 185.591 160.397 184.328 159.333C183.066 158.27 181.792 157.222 180.516 156.187C179.239 155.152 177.933 154.134 176.619 153.139L174.634 151.66C173.962 151.18 173.296 150.693 172.609 150.229C172.311 150.027 171.947 149.944 171.591 149.998C171.234 150.052 170.911 150.238 170.685 150.52C170.46 150.802 170.349 151.158 170.375 151.518C170.401 151.877 170.562 152.214 170.826 152.461C171.419 153.033 172.044 153.572 172.66 154.124Z" fill="black"/>
<path d="M326.525 483.39C325.373 483.285 324.221 483.215 323.071 483.167C322.204 483.128 321.383 482.76 320.778 482.137C320.172 481.515 319.827 480.684 319.812 479.816C319.804 479.381 319.794 478.946 319.78 478.512C319.728 476.409 319.664 474.298 319.531 472.201C319.52 472.01 319.47 471.824 319.385 471.653C319.3 471.482 319.182 471.33 319.037 471.206C318.893 471.081 318.725 470.987 318.543 470.928C318.362 470.87 318.17 470.848 317.98 470.864C317.631 470.904 317.307 471.067 317.067 471.325C316.827 471.583 316.687 471.917 316.672 472.269C316.542 474.35 316.471 476.433 316.427 478.514C316.415 478.948 316.404 479.383 316.395 479.818C316.38 480.689 316.033 481.521 315.425 482.144C314.816 482.767 313.992 483.134 313.122 483.169C311.956 483.217 310.79 483.292 309.625 483.398C309.249 483.433 308.903 483.613 308.66 483.901C308.417 484.189 308.297 484.561 308.326 484.937C308.361 485.282 308.516 485.603 308.764 485.845C309.012 486.087 309.337 486.233 309.683 486.259C310.833 486.364 311.982 486.436 313.132 486.484C313.999 486.523 314.818 486.89 315.423 487.511C316.028 488.132 316.375 488.96 316.391 489.827C316.399 490.261 316.409 490.693 316.421 491.126L316.513 494.282C316.57 495.334 316.602 496.385 316.678 497.439C316.692 497.627 316.743 497.811 316.828 497.98C316.913 498.149 317.03 498.299 317.174 498.422C317.317 498.545 317.484 498.639 317.663 498.697C317.843 498.756 318.033 498.778 318.221 498.763C318.568 498.727 318.892 498.568 319.133 498.316C319.374 498.063 319.517 497.733 319.538 497.384C319.612 496.351 319.642 495.318 319.698 494.284L319.79 491.128C319.802 490.694 319.812 490.26 319.82 489.825C319.834 488.954 320.181 488.121 320.789 487.497C321.398 486.873 322.222 486.505 323.093 486.47C324.257 486.422 325.421 486.35 326.585 486.243C326.96 486.209 327.307 486.028 327.551 485.74C327.794 485.452 327.914 485.08 327.885 484.704C327.848 484.36 327.692 484.04 327.443 483.8C327.195 483.56 326.87 483.415 326.525 483.39Z" fill="black"/>
<path d="M511.865 432.85C510.56 432.778 509.256 432.748 507.952 432.693L503.974 432.601C503.038 432.581 502.096 432.568 501.147 432.561C500.246 432.553 499.385 432.191 498.749 431.552C498.114 430.914 497.755 430.051 497.752 429.15C497.752 426.91 497.73 424.671 497.696 422.431C497.643 418.482 497.579 414.535 497.447 410.592C497.44 410.397 497.393 410.206 497.309 410.03C497.226 409.854 497.107 409.697 496.961 409.568C496.815 409.44 496.644 409.342 496.458 409.282C496.273 409.221 496.078 409.2 495.884 409.217C495.528 409.263 495.202 409.435 494.963 409.702C494.725 409.97 494.592 410.314 494.587 410.672C494.457 414.593 494.387 418.516 494.342 422.437C494.308 424.677 494.296 426.916 494.286 429.156C494.283 430.057 493.924 430.92 493.288 431.559C492.652 432.197 491.79 432.56 490.889 432.567C489.953 432.576 489.01 432.589 488.062 432.605L484.084 432.698C482.758 432.752 481.434 432.784 480.107 432.86C479.916 432.871 479.729 432.92 479.557 433.004C479.385 433.089 479.232 433.207 479.107 433.351C478.982 433.496 478.887 433.664 478.827 433.846C478.768 434.028 478.746 434.221 478.763 434.411C478.802 434.761 478.965 435.085 479.223 435.325C479.481 435.565 479.816 435.705 480.167 435.72C481.472 435.792 482.776 435.824 484.08 435.878L488.058 435.97C488.994 435.989 489.936 436.002 490.883 436.009C491.784 436.016 492.645 436.379 493.281 437.017C493.916 437.656 494.275 438.519 494.278 439.42C494.288 441.658 494.304 443.895 494.328 446.132L494.421 452.054C494.477 454.028 494.509 456.003 494.585 457.976C494.593 458.169 494.64 458.36 494.724 458.535C494.808 458.71 494.926 458.866 495.072 458.994C495.217 459.122 495.388 459.219 495.572 459.279C495.757 459.339 495.951 459.361 496.144 459.344C496.498 459.3 496.825 459.129 497.063 458.864C497.302 458.598 497.436 458.256 497.443 457.899C497.517 455.951 497.549 454.002 497.603 452.054L497.696 446.132C497.721 443.894 497.738 441.656 497.746 439.418C497.749 438.517 498.108 437.654 498.743 437.015C499.379 436.377 500.24 436.014 501.141 436.006C502.077 435.997 503.019 435.984 503.966 435.966L507.944 435.874C509.27 435.82 510.595 435.788 511.921 435.714C512.112 435.703 512.299 435.654 512.471 435.57C512.643 435.485 512.797 435.368 512.922 435.223C513.048 435.078 513.143 434.91 513.202 434.728C513.262 434.545 513.284 434.353 513.267 434.162C513.229 433.812 513.066 433.487 512.809 433.247C512.552 433.006 512.217 432.865 511.865 432.85Z" fill="black"/>
<path d="M73.4279 182.153C74.7042 182.225 75.9824 182.257 77.2587 182.312L81.1516 182.404C82.0385 182.424 82.9262 182.439 83.8144 182.448C84.7146 182.457 85.575 182.82 86.2096 183.458C86.8442 184.097 87.2021 184.959 87.2057 185.859C87.2151 188.012 87.2311 190.164 87.2539 192.317L87.3462 198.114C87.4024 200.047 87.4345 201.979 87.5107 203.911C87.5189 204.105 87.5663 204.295 87.65 204.47C87.7338 204.645 87.8521 204.801 87.9978 204.928C88.1436 205.056 88.3138 205.153 88.498 205.213C88.6823 205.273 88.8768 205.295 89.0699 205.278C89.4243 205.234 89.7509 205.064 89.9898 204.798C90.2287 204.533 90.3637 204.19 90.3702 203.833C90.4445 201.927 90.4766 200.02 90.5307 198.114L90.6231 192.317C90.6485 190.164 90.6645 188.011 90.6712 185.857C90.6749 184.958 91.0324 184.095 91.6666 183.457C92.3008 182.819 93.1607 182.456 94.0605 182.446C94.9474 182.435 95.835 182.421 96.7233 182.402L100.616 182.31C101.915 182.255 103.211 182.223 104.509 182.149C104.7 182.138 104.887 182.089 105.059 182.005C105.231 181.92 105.384 181.802 105.509 181.658C105.635 181.513 105.73 181.345 105.789 181.163C105.848 180.981 105.87 180.789 105.854 180.598C105.814 180.248 105.651 179.924 105.393 179.684C105.136 179.444 104.801 179.304 104.449 179.29C103.173 179.219 101.897 179.187 100.618 179.133L96.7253 179.041C95.837 179.021 94.9488 179.006 94.0605 178.997C93.1604 178.988 92.2999 178.625 91.6653 177.986C91.0307 177.348 90.6729 176.485 90.6692 175.585C90.6692 173.43 90.6471 171.277 90.615 169.122C90.5629 165.257 90.4986 161.392 90.3662 157.529C90.3591 157.335 90.3124 157.144 90.229 156.968C90.1456 156.792 90.0273 156.635 89.8812 156.506C89.7351 156.378 89.5643 156.28 89.3793 156.22C89.1943 156.159 88.9989 156.137 88.805 156.155C88.4502 156.2 88.1237 156.372 87.8855 156.639C87.6474 156.906 87.5135 157.25 87.5087 157.608C87.3783 161.446 87.308 165.283 87.2639 169.122C87.2318 171.275 87.2177 173.43 87.2097 175.583C87.2061 176.483 86.8482 177.346 86.2136 177.984C85.579 178.623 84.7186 178.986 83.8185 178.995C82.9302 179.004 82.0426 179.019 81.1556 179.039L77.2627 179.131C75.9644 179.185 74.6681 179.217 73.3697 179.294C73.1788 179.305 72.9921 179.354 72.8205 179.439C72.6489 179.523 72.4961 179.641 72.3709 179.786C72.2458 179.93 72.1509 180.099 72.0918 180.28C72.0328 180.462 72.0109 180.654 72.0273 180.845C72.0666 181.194 72.2293 181.518 72.4861 181.757C72.7429 181.997 73.0769 182.138 73.4279 182.153Z" fill="black"/>
<path d="M417.539 127.532C418.528 127.604 419.518 127.636 420.507 127.69L423.527 127.782L424.488 127.806C425.382 127.825 426.233 128.192 426.86 128.829C427.487 129.467 427.84 130.324 427.843 131.218C427.853 132.514 427.867 133.81 427.886 135.105L427.978 139.602C428.034 141.101 428.066 142.6 428.142 144.099C428.153 144.291 428.202 144.479 428.286 144.651C428.37 144.824 428.489 144.978 428.634 145.104C428.779 145.23 428.948 145.326 429.13 145.386C429.313 145.445 429.506 145.468 429.698 145.451C430.049 145.409 430.374 145.242 430.614 144.98C430.853 144.719 430.991 144.381 431.002 144.026C431.076 142.551 431.108 141.077 431.162 139.612L431.255 135.115C431.275 133.818 431.289 132.522 431.297 131.226C431.3 130.332 431.653 129.475 432.279 128.838C432.906 128.201 433.757 127.833 434.65 127.815L435.611 127.79L438.631 127.698C439.635 127.644 440.638 127.612 441.651 127.538C441.84 127.524 442.023 127.473 442.192 127.387C442.361 127.302 442.511 127.184 442.633 127.041C442.756 126.898 442.85 126.731 442.908 126.552C442.966 126.372 442.989 126.183 442.974 125.994C442.938 125.647 442.779 125.325 442.527 125.083C442.275 124.842 441.945 124.699 441.597 124.678C440.608 124.608 439.619 124.576 438.629 124.522L435.609 124.429L434.644 124.405C433.752 124.387 432.902 124.021 432.276 123.385C431.65 122.749 431.297 121.894 431.293 121.002C431.293 119.704 431.271 118.405 431.245 117.105C431.193 114.107 431.128 111.109 430.996 108.109C430.987 107.916 430.939 107.727 430.854 107.553C430.77 107.38 430.652 107.225 430.507 107.097C430.361 106.97 430.192 106.874 430.008 106.814C429.825 106.754 429.631 106.732 429.439 106.749C429.086 106.793 428.76 106.962 428.521 107.226C428.283 107.49 428.147 107.831 428.138 108.187C428.008 111.159 427.938 114.133 427.894 117.105C427.868 118.403 427.855 119.702 427.845 121C427.839 121.891 427.485 122.744 426.858 123.379C426.232 124.013 425.383 124.377 424.492 124.395L423.529 124.419L420.509 124.512C419.506 124.566 418.502 124.598 417.489 124.674C417.301 124.688 417.117 124.739 416.948 124.824C416.78 124.91 416.63 125.027 416.507 125.171C416.384 125.314 416.291 125.48 416.232 125.66C416.174 125.84 416.152 126.029 416.167 126.217C416.203 126.563 416.361 126.885 416.612 127.126C416.863 127.366 417.192 127.51 417.539 127.532Z" fill="black"/>
<path d="M233.175 115.758C234.535 115.873 235.898 115.949 237.258 115.997C238.131 116.032 238.957 116.4 239.566 117.026C240.175 117.652 240.521 118.487 240.533 119.36C240.542 119.95 240.554 120.54 240.567 121.13L240.659 124.542C240.716 125.675 240.748 126.809 240.824 127.953C240.837 128.142 240.887 128.327 240.972 128.497C241.057 128.667 241.175 128.818 241.319 128.942C241.463 129.066 241.63 129.16 241.811 129.218C241.992 129.277 242.182 129.299 242.371 129.283C242.719 129.246 243.043 129.085 243.283 128.831C243.524 128.576 243.666 128.244 243.684 127.895C243.758 126.781 243.788 125.665 243.844 124.552L243.936 121.14C243.951 120.549 243.962 119.958 243.97 119.366C243.978 118.489 244.322 117.648 244.933 117.019C245.544 116.389 246.375 116.019 247.251 115.985C248.628 115.937 250.007 115.861 251.383 115.744C251.761 115.712 252.11 115.532 252.356 115.243C252.601 114.954 252.721 114.579 252.691 114.201C252.655 113.856 252.498 113.534 252.248 113.292C251.997 113.051 251.67 112.906 251.323 112.883C249.96 112.769 248.598 112.694 247.237 112.646C246.361 112.612 245.531 112.242 244.921 111.612C244.31 110.983 243.966 110.142 243.958 109.265C243.949 108.68 243.936 108.096 243.92 107.511C243.868 105.244 243.804 102.976 243.672 100.709C243.66 100.517 243.611 100.33 243.526 100.159C243.442 99.9871 243.324 99.8341 243.179 99.7089C243.034 99.5837 242.865 99.4889 242.683 99.43C242.501 99.3711 242.309 99.3494 242.118 99.366C241.769 99.4063 241.446 99.5699 241.206 99.8274C240.967 100.085 240.827 100.419 240.812 100.771C240.682 103.016 240.611 105.262 240.567 107.505C240.551 108.09 240.538 108.674 240.529 109.257C240.518 110.135 240.171 110.975 239.558 111.604C238.946 112.233 238.115 112.602 237.238 112.636C235.86 112.684 234.481 112.761 233.102 112.879C232.725 112.912 232.377 113.092 232.132 113.381C231.887 113.669 231.767 114.043 231.796 114.42C231.828 114.771 231.985 115.099 232.237 115.345C232.49 115.59 232.823 115.737 233.175 115.758Z" fill="black"/>
<path d="M220.234 391.679C219.244 391.609 218.255 391.577 217.266 391.523L214.246 391.43L213.281 391.406C212.389 391.389 211.541 391.024 210.914 390.39C210.288 389.756 209.934 388.902 209.927 388.011C209.927 386.713 209.905 385.414 209.879 384.114C209.827 381.116 209.763 378.118 209.63 375.118C209.621 374.925 209.573 374.736 209.489 374.562C209.405 374.389 209.287 374.234 209.141 374.107C208.996 373.979 208.826 373.883 208.643 373.823C208.459 373.763 208.266 373.741 208.073 373.758C207.72 373.802 207.394 373.971 207.156 374.235C206.917 374.499 206.781 374.841 206.773 375.196C206.642 378.168 206.572 381.142 206.528 384.114C206.502 385.412 206.49 386.711 206.48 388.009C206.473 388.9 206.119 389.754 205.493 390.388C204.867 391.022 204.018 391.387 203.127 391.404L202.164 391.428L199.144 391.521C198.14 391.575 197.137 391.607 196.124 391.683C195.935 391.697 195.751 391.748 195.583 391.833C195.414 391.919 195.264 392.036 195.141 392.18C195.019 392.323 194.925 392.489 194.867 392.669C194.808 392.849 194.786 393.038 194.801 393.226C194.837 393.573 194.995 393.896 195.247 394.137C195.499 394.378 195.828 394.522 196.176 394.543C197.165 394.615 198.154 394.647 199.144 394.701L202.164 394.794L203.125 394.818C204.019 394.836 204.87 395.203 205.497 395.84C206.124 396.478 206.476 397.335 206.48 398.229C206.489 399.525 206.503 400.821 206.522 402.116L206.614 406.613C206.671 408.112 206.703 409.611 206.779 411.11C206.789 411.302 206.838 411.49 206.922 411.662C207.007 411.835 207.125 411.989 207.27 412.115C207.415 412.242 207.584 412.337 207.767 412.397C207.95 412.456 208.143 412.479 208.334 412.462C208.686 412.42 209.011 412.253 209.25 411.991C209.489 411.73 209.627 411.392 209.638 411.038C209.713 409.563 209.745 408.088 209.799 406.623L209.891 402.126C209.911 400.83 209.925 399.533 209.933 398.237C209.937 397.343 210.289 396.486 210.916 395.849C211.542 395.212 212.393 394.844 213.287 394.826L214.248 394.802L217.268 394.709C218.271 394.655 219.274 394.623 220.288 394.549C220.476 394.535 220.66 394.484 220.828 394.398C220.997 394.313 221.147 394.196 221.27 394.052C221.393 393.909 221.486 393.742 221.545 393.563C221.603 393.383 221.625 393.194 221.61 393.006C221.576 392.657 221.419 392.331 221.167 392.088C220.914 391.845 220.583 391.7 220.234 391.679Z" fill="black"/>
<path d="M550.748 334.764C553.909 334.764 556.471 332.202 556.471 329.041C556.471 325.88 553.909 323.318 550.748 323.318C547.587 323.318 545.025 325.88 545.025 329.041C545.025 332.202 547.587 334.764 550.748 334.764Z" fill="black"/>
<path d="M197.163 209.833C200.324 209.833 202.886 207.271 202.886 204.11C202.886 200.949 200.324 198.387 197.163 198.387C194.002 198.387 191.44 200.949 191.44 204.11C191.44 207.271 194.002 209.833 197.163 209.833Z" fill="black"/>
<path d="M56.4495 427.007C59.6102 427.007 62.1725 424.444 62.1725 421.284C62.1725 418.123 59.6102 415.561 56.4495 415.561C53.2888 415.561 50.7265 418.123 50.7265 421.284C50.7265 424.444 53.2888 427.007 56.4495 427.007Z" fill="black"/>
<path d="M234.995 362.323C238.155 362.323 240.718 359.761 240.718 356.6C240.718 353.44 238.155 350.877 234.995 350.877C231.834 350.877 229.272 353.44 229.272 356.6C229.272 359.761 231.834 362.323 234.995 362.323Z" fill="black"/>
<path d="M484.929 117.795C488.09 117.795 490.652 115.233 490.652 112.072C490.652 108.912 488.09 106.349 484.929 106.349C481.768 106.349 479.206 108.912 479.206 112.072C479.206 115.233 481.768 117.795 484.929 117.795Z" fill="black"/>
<path d="M116.945 115.664C120.105 115.664 122.668 113.102 122.668 109.941C122.668 106.781 120.105 104.218 116.945 104.218C113.784 104.218 111.222 106.781 111.222 109.941C111.222 113.102 113.784 115.664 116.945 115.664Z" fill="black"/>
<path d="M49.3298 232.675C52.4906 232.675 55.0529 230.113 55.0529 226.952C55.0529 223.791 52.4906 221.229 49.3298 221.229C46.1691 221.229 43.6068 223.791 43.6068 226.952C43.6068 230.113 46.1691 232.675 49.3298 232.675Z" fill="black"/>
</svg>
