<svg width="100" height="24" viewBox="0 0 100 24" fill="none" xmlns="http://www.w3.org/2000/svg">
<path fill-rule="evenodd" clip-rule="evenodd" d="M14.6958 2.81092C15.0229 3.12185 15.4381 3.27731 15.9413 3.27731C16.4446 3.27731 16.8597 3.12185 17.1868 2.81092C17.5139 2.5 17.6775 2.10925 17.6775 1.63866C17.6775 1.16806 17.5139 0.777313 17.1868 0.466387C16.8597 0.155461 16.4446 0 15.9413 0C15.4381 0 15.0229 0.155461 14.6958 0.466387C14.3687 0.777313 14.2052 1.16806 14.2052 1.63866C14.2052 2.10925 14.3687 2.5 14.6958 2.81092ZM3.12053 17.7731C4.09345 18.2269 5.22571 18.4538 6.51735 18.4538C7.84253 18.4538 8.95802 18.2143 9.86384 17.7353C10.7697 17.2563 11.449 16.6345 11.9019 15.8697C12.3548 15.105 12.5813 14.2773 12.5813 13.3866C12.5813 12.3781 12.3758 11.5462 11.9648 10.8908C11.5539 10.2353 11.0045 9.70588 10.3168 9.30252C9.629 8.89916 8.84899 8.55462 7.97672 8.26891L5.56121 7.42437C4.85668 7.18067 4.30313 6.87395 3.90054 6.5042C3.49795 6.13445 3.29666 5.60505 3.29666 4.91597C3.29666 4.14285 3.56924 3.53782 4.11441 3.10084C4.65958 2.66386 5.35152 2.45378 6.19025 2.47059C6.84445 2.47059 7.398 2.60504 7.85091 2.87395C8.30382 3.14286 8.6477 3.48319 8.88254 3.89496C9.11738 4.30673 9.2348 4.73949 9.2348 5.19328H12.0529C12.0361 4.20168 11.7845 3.33194 11.2981 2.58403C10.8116 1.83613 10.1364 1.2521 9.27254 0.831933C8.40866 0.411763 7.4064 0.201681 6.26573 0.201681C5.10829 0.201681 4.09764 0.407561 3.23376 0.819328C2.36987 1.23109 1.6989 1.80672 1.22083 2.54622C0.742754 3.28572 0.512108 4.15126 0.528882 5.14286C0.528882 6.31933 0.868561 7.2689 1.54793 7.9916C2.22729 8.71429 3.24633 9.30252 4.60506 9.7563C4.94894 9.87395 5.28443 9.9874 5.61153 10.0966L6.56767 10.4118C7.18833 10.6134 7.73768 10.8403 8.21576 11.0924C8.69383 11.3445 9.07125 11.6639 9.34803 12.0504C9.62481 12.437 9.7632 12.9412 9.7632 13.563C9.7632 14.3361 9.47384 14.9706 8.89512 15.4664C8.3164 15.9622 7.51543 16.2101 6.49219 16.2101C5.33474 16.2101 4.43732 15.8824 3.79989 15.2269C3.16246 14.5714 2.83536 13.7731 2.81859 12.8319H0.000488281C0.0172628 13.9916 0.298231 14.9916 0.843402 15.8319C1.38857 16.6723 2.14761 17.3193 3.12053 17.7731ZM14.6078 18.1513V5.64706H17.2749V18.1513H14.6078ZM19.8298 5.64706V18.1513H22.4969V11.6975C22.4969 10.3865 22.8198 9.37815 23.4656 8.67227C24.1114 7.96638 24.9292 7.61345 25.9189 7.61345C27.8983 7.61345 28.888 8.82352 28.888 11.2437V18.1513H31.5299V10.9664C31.5299 9.10083 31.098 7.69748 30.2341 6.7563C29.3702 5.81512 28.1834 5.34454 26.6737 5.34454C25.7008 5.34454 24.8411 5.56722 24.0947 6.0126C23.3482 6.45799 22.7821 7.06722 22.3963 7.84034L22.195 5.64706H19.8298ZM38.8152 14.3193C38.161 14.3193 37.5571 14.2437 37.0035 14.0924L35.9216 15.1513C36.1061 15.2689 36.3326 15.3697 36.601 15.4538C36.8694 15.5378 37.2468 15.6134 37.7332 15.6807L38.1311 15.7311C38.562 15.7815 39.092 15.8319 39.721 15.8824C41.3817 16.0336 42.581 16.4328 43.3191 17.0798C44.0572 17.7269 44.4262 18.5882 44.4262 19.6639C44.4262 20.4034 44.2291 21.105 43.8349 21.7689C43.4407 22.4328 42.8285 22.9706 41.9981 23.3824C41.1678 23.7941 40.1068 24 38.8152 24C37.0706 24 35.6574 23.6681 34.5755 23.0042C33.4935 22.3403 32.9525 21.3361 32.9525 19.9916C32.9525 19.4706 33.0909 18.9538 33.3677 18.4412C33.6445 17.9286 34.0848 17.4454 34.6887 16.9916C34.3364 16.8403 34.0303 16.6765 33.7703 16.5C33.5103 16.3235 33.2796 16.1429 33.0783 15.958V15.3529L35.2422 13.1345C34.2693 12.2941 33.7829 11.1933 33.7829 9.83193C33.7829 9.0084 33.98 8.25631 34.3742 7.57563C34.7684 6.89495 35.3429 6.35294 36.0977 5.94958C36.8526 5.54622 37.7584 5.34454 38.8152 5.34454C39.5197 5.34454 40.1739 5.44538 40.7778 5.64706H45.4327V7.41176L43.2185 7.53782C43.6211 8.22689 43.8223 8.99159 43.8223 9.83193C43.8223 10.6723 43.6252 11.4286 43.231 12.1008C42.8368 12.7731 42.2665 13.3109 41.5201 13.7143C40.7736 14.1176 39.872 14.3193 38.8152 14.3193ZM40.6897 11.6092C40.2117 12.021 39.5868 12.2269 38.8152 12.2269C38.0268 12.2269 37.3936 12.021 36.9155 11.6092C36.4374 11.1975 36.1984 10.6134 36.1984 9.85714C36.1984 9.08403 36.4374 8.4958 36.9155 8.09244C37.3936 7.68907 38.0268 7.48739 38.8152 7.48739C39.5868 7.48739 40.2117 7.68907 40.6897 8.09244C41.1678 8.4958 41.4068 9.08403 41.4068 9.85714C41.4068 10.6134 41.1678 11.1975 40.6897 11.6092ZM35.4687 19.7395C35.4687 20.4622 35.7874 21.0042 36.4248 21.3655C37.0623 21.7269 37.859 21.9076 38.8152 21.9076C39.7378 21.9076 40.4842 21.7101 41.0546 21.3151C41.6249 20.9202 41.9101 20.395 41.9101 19.7395C41.9101 19.2521 41.7172 18.8361 41.3313 18.4916C40.9455 18.1471 40.2159 17.9328 39.1423 17.8487C38.3371 17.7983 37.6242 17.7227 37.0035 17.6218C36.4164 17.9412 36.0139 18.2857 35.7958 18.6555C35.5777 19.0252 35.4687 19.3866 35.4687 19.7395ZM46.8553 0V18.1513H49.5224V0H46.8553ZM57.7638 18.4538C56.5393 18.4538 55.4531 18.1807 54.5054 17.6345C53.5576 17.0882 52.8154 16.3277 52.2786 15.3529C51.7418 14.3781 51.4734 13.2437 51.4734 11.9496C51.4734 10.6386 51.7376 9.4874 52.266 8.4958C52.7944 7.5042 53.5325 6.7311 54.4802 6.17647C55.428 5.62185 56.5309 5.34454 57.789 5.34454C59.0135 5.34454 60.0787 5.61764 60.9845 6.16387C61.8903 6.71009 62.5948 7.43697 63.0981 8.34454C63.6013 9.25211 63.8529 10.2521 63.8529 11.3445L63.8473 11.6975C63.8455 11.7591 63.8431 11.8221 63.8403 11.8866L63.8026 12.5294H54.0902C54.1741 13.7395 54.5725 14.6597 55.2854 15.2899C55.9983 15.9202 56.8244 16.2353 57.7638 16.2353C58.5187 16.2353 59.1519 16.063 59.6635 15.7185C60.1751 15.3739 60.5568 14.9076 60.8084 14.3193H63.4755C63.14 15.4958 62.4732 16.479 61.4752 17.2689C60.4771 18.0588 59.24 18.4538 57.7638 18.4538ZM55.3986 8.33193C56.0864 7.80252 56.8748 7.53782 57.7638 7.53782C58.72 7.53782 59.5167 7.82353 60.1542 8.39496C60.7916 8.96639 61.1355 9.73949 61.1858 10.7143H54.1405C54.2915 9.65546 54.7109 8.86135 55.3986 8.33193ZM70.5595 18.1513C69.3349 18.1513 68.362 17.8529 67.6407 17.2563C66.9194 16.6597 66.5588 15.5966 66.5588 14.0672V7.89076H64.42V5.64706H66.5588L66.8859 2.47059H69.2259V5.64706H72.7485V7.89076H69.2259V14.0672C69.2259 14.7563 69.3727 15.2311 69.6662 15.4916C69.9598 15.7521 70.4672 15.8824 71.1885 15.8824H72.6227V18.1513H70.5595ZM76.8257 17.6345C77.7734 18.1807 78.8428 18.4538 80.0338 18.4538C81.2248 18.4538 82.2983 18.1807 83.2545 17.6345C84.2106 17.0882 84.9697 16.3235 85.5316 15.3403C86.0935 14.3571 86.3745 13.2101 86.3745 11.8992C86.3745 10.5882 86.0935 9.44118 85.5316 8.45798C84.9697 7.47478 84.2148 6.71009 83.2671 6.16387C82.3193 5.61764 81.2499 5.34454 80.0589 5.34454C78.8847 5.34454 77.8196 5.61764 76.8634 6.16387C75.9073 6.71009 75.1482 7.47478 74.5863 8.45798C74.0243 9.44118 73.7434 10.5882 73.7434 11.8992C73.7434 13.2101 74.0201 14.3571 74.5737 15.3403C75.1273 16.3235 75.8779 17.0882 76.8257 17.6345ZM80.0338 16.1597C80.6712 16.1597 81.2625 16 81.8077 15.6807C82.3528 15.3613 82.7932 14.8866 83.1287 14.2563C83.4641 13.626 83.6319 12.8403 83.6319 11.8992C83.6319 10.958 83.4683 10.1723 83.1412 9.54202C82.8141 8.91176 82.378 8.43698 81.8328 8.11765C81.2877 7.79832 80.6964 7.63866 80.0589 7.63866C79.4215 7.63866 78.8302 7.79832 78.285 8.11765C77.7399 8.43698 77.2996 8.91176 76.9641 9.54202C76.6286 10.1723 76.4608 10.958 76.4608 11.8992C76.4608 12.8403 76.6286 13.626 76.9641 14.2563C77.2996 14.8866 77.7357 15.3613 78.2725 15.6807C78.8092 16 79.3963 16.1597 80.0338 16.1597ZM90.6655 5.64706H88.3003V18.1513H90.9675V11.6975C90.9675 10.3865 91.2904 9.37815 91.9362 8.67227C92.582 7.96638 93.3998 7.61345 94.3895 7.61345C96.3688 7.61345 97.3585 8.82352 97.3585 11.2437V18.1513H100V10.9664C100 9.10083 99.5686 7.69748 98.7047 6.7563C97.8408 5.81512 96.654 5.34454 95.1443 5.34454C94.1714 5.34454 93.3117 5.56722 92.5652 6.0126C91.8188 6.45799 91.2526 7.06722 90.8668 7.84034L90.6655 5.64706Z" fill="white"/>
</svg>
