<svg width="28" height="28" viewBox="0 0 28 28" fill="none" xmlns="http://www.w3.org/2000/svg">
<path d="M14 0C6.26812 0 0 6.26801 0 14C0 21.732 6.26812 28 14 28C21.7319 28 28 21.732 28 14C28 6.26801 21.7319 0 14 0ZM18.8388 14.7421L11.8387 19.1171C11.6971 19.2055 11.5361 19.25 11.375 19.25C11.2291 19.25 11.083 19.2137 10.9507 19.1402C10.6726 18.986 10.5 18.6933 10.5 18.375V9.625C10.5 9.30672 10.6726 9.01403 10.9507 8.85981C11.2289 8.70472 11.569 8.71412 11.8387 8.88289L18.8388 13.2579C19.0945 13.4181 19.25 13.6984 19.25 14C19.25 14.3016 19.0945 14.5819 18.8388 14.7421Z" fill="#783BFF"/>
</svg>
