<svg width="65" height="65" viewBox="0 0 65 65" fill="none" xmlns="http://www.w3.org/2000/svg">
<rect width="65" height="65" rx="22" fill="#FFE6DF"/>
<path fill-rule="evenodd" clip-rule="evenodd" d="M41.5 32H40V28C40 26.9 39.1 26 38 26H34V24.5C34 23.12 32.88 22 31.5 22C30.12 22 29 23.12 29 24.5V26H25C23.9 26 23.01 26.9 23.01 28V31.8H24.5C25.99 31.8 27.2 33.01 27.2 34.5C27.2 35.99 25.99 37.2 24.5 37.2H23V41C23 42.1 23.9 43 25 43H28.8V41.5C28.8 40.01 30.01 38.8 31.5 38.8C32.99 38.8 34.2 40.01 34.2 41.5V43H38C39.1 43 40 42.1 40 41V37H41.5C42.88 37 44 35.88 44 34.5C44 33.12 42.88 32 41.5 32Z" fill="#FF6D43"/>
</svg>
